M48
;GenerationSoftware,Autodesk,EAGLE,9.5.2*%
;CreationDate,2019-12-02T21:12:05Z*%
FMAT,2
ICI,OFF
METRIC,TZ,000.000
T6C0.508
T5C0.813
T4C0.900
T3C1.016
T2C2.997
%
G90
M71
T2
X63120Y23400
X58420Y20400
X58420Y26400
T3
X34417Y40640
X55880Y37973
X31623Y40640
X16510Y16510
X16510Y19050
X19050Y16510
X19050Y19050
X21590Y16510
X21590Y19050
X39370Y40640
X41910Y40640
X44450Y40640
X46990Y40640
X49530Y40640
X52070Y40640
X55880Y40767
X31750Y36830
X34290Y36830
X36830Y36830
X39370Y36830
X41910Y36830
X44450Y36830
X46990Y36830
X49530Y36830
T4
X63500Y31750
X13970Y25400
X21590Y25400
X13970Y27940
X21590Y27940
X13970Y30480
X21590Y30480
X55880Y31750
T5
X26670Y29210
X26670Y25400
X29210Y25400
X26670Y33020
X29210Y33020
X24130Y29210
T6
X34290Y43180
X31750Y25400
X31694Y22860
X46990Y40640
X52070Y36830
X52070Y36830
X52070Y36830
X31750Y34290
X30480Y24130
X30480Y12700
X30480Y26670
X34290Y31750
X26670Y19050
X44450Y11430
X19050Y21590
X41910Y12644
M30