G04 EAGLE Gerber RS-274X export*
G75*
%MOMM*%
%FSLAX34Y34*%
%LPD*%
%INTop Copper*%
%IPPOS*%
%AMOC8*
5,1,8,0,0,1.08239X$1,22.5*%
G01*
%ADD10C,2.032000*%
%ADD11C,1.879600*%
%ADD12C,4.318000*%
%ADD13R,1.270000X0.400000*%
%ADD14R,0.400000X1.270000*%
%ADD15C,0.203200*%
%ADD16C,1.016000*%

G36*
X698558Y62493D02*
X698558Y62493D01*
X698616Y62491D01*
X698698Y62513D01*
X698782Y62525D01*
X698835Y62549D01*
X698891Y62563D01*
X698964Y62606D01*
X699041Y62641D01*
X699086Y62679D01*
X699136Y62709D01*
X699194Y62770D01*
X699258Y62825D01*
X699290Y62873D01*
X699330Y62916D01*
X699369Y62991D01*
X699416Y63061D01*
X699433Y63117D01*
X699460Y63169D01*
X699471Y63237D01*
X699501Y63332D01*
X699504Y63432D01*
X699515Y63500D01*
X699515Y469900D01*
X699507Y469958D01*
X699509Y470016D01*
X699487Y470098D01*
X699475Y470182D01*
X699452Y470235D01*
X699437Y470291D01*
X699394Y470364D01*
X699359Y470441D01*
X699321Y470486D01*
X699292Y470536D01*
X699230Y470594D01*
X699176Y470658D01*
X699127Y470690D01*
X699084Y470730D01*
X699009Y470769D01*
X698939Y470816D01*
X698883Y470833D01*
X698831Y470860D01*
X698763Y470871D01*
X698668Y470901D01*
X698568Y470904D01*
X698500Y470915D01*
X88900Y470915D01*
X88813Y470903D01*
X88726Y470900D01*
X88673Y470883D01*
X88619Y470875D01*
X88539Y470840D01*
X88455Y470813D01*
X88416Y470785D01*
X88359Y470759D01*
X88246Y470663D01*
X88182Y470618D01*
X75482Y457918D01*
X75430Y457848D01*
X75370Y457784D01*
X75344Y457735D01*
X75311Y457691D01*
X75280Y457609D01*
X75240Y457531D01*
X75232Y457484D01*
X75210Y457425D01*
X75198Y457277D01*
X75185Y457200D01*
X75185Y76200D01*
X75197Y76113D01*
X75200Y76026D01*
X75217Y75973D01*
X75225Y75919D01*
X75260Y75839D01*
X75287Y75755D01*
X75315Y75716D01*
X75341Y75659D01*
X75437Y75546D01*
X75482Y75482D01*
X88182Y62782D01*
X88252Y62730D01*
X88316Y62670D01*
X88365Y62644D01*
X88409Y62611D01*
X88491Y62580D01*
X88569Y62540D01*
X88617Y62532D01*
X88675Y62510D01*
X88823Y62498D01*
X88900Y62485D01*
X698500Y62485D01*
X698558Y62493D01*
G37*
%LPC*%
G36*
X482400Y196915D02*
X482400Y196915D01*
X473509Y196915D01*
X473509Y198234D01*
X473682Y198881D01*
X474017Y199460D01*
X474098Y199541D01*
X474133Y199588D01*
X474176Y199628D01*
X474218Y199701D01*
X474269Y199768D01*
X474290Y199823D01*
X474320Y199874D01*
X474340Y199955D01*
X474370Y200034D01*
X474375Y200092D01*
X474390Y200149D01*
X474387Y200233D01*
X474394Y200317D01*
X474382Y200375D01*
X474381Y200433D01*
X474355Y200513D01*
X474338Y200596D01*
X474311Y200648D01*
X474293Y200704D01*
X474253Y200760D01*
X474207Y200848D01*
X474138Y200921D01*
X474098Y200977D01*
X474017Y201058D01*
X474017Y206742D01*
X474457Y207182D01*
X474492Y207229D01*
X474535Y207269D01*
X474578Y207342D01*
X474628Y207409D01*
X474649Y207464D01*
X474679Y207514D01*
X474700Y207596D01*
X474730Y207675D01*
X474734Y207733D01*
X474749Y207790D01*
X474746Y207874D01*
X474753Y207958D01*
X474742Y208016D01*
X474740Y208074D01*
X474714Y208154D01*
X474697Y208237D01*
X474670Y208289D01*
X474652Y208345D01*
X474612Y208401D01*
X474566Y208489D01*
X474498Y208562D01*
X474457Y208618D01*
X474017Y209058D01*
X474017Y214742D01*
X474457Y215182D01*
X474493Y215229D01*
X474535Y215269D01*
X474578Y215342D01*
X474628Y215409D01*
X474649Y215464D01*
X474679Y215514D01*
X474699Y215596D01*
X474730Y215675D01*
X474734Y215733D01*
X474749Y215790D01*
X474746Y215874D01*
X474753Y215958D01*
X474742Y216016D01*
X474740Y216074D01*
X474714Y216154D01*
X474697Y216237D01*
X474670Y216289D01*
X474652Y216345D01*
X474612Y216401D01*
X474566Y216489D01*
X474497Y216562D01*
X474457Y216618D01*
X474017Y217058D01*
X474017Y222742D01*
X474457Y223182D01*
X474493Y223229D01*
X474535Y223269D01*
X474578Y223342D01*
X474628Y223409D01*
X474649Y223464D01*
X474679Y223514D01*
X474699Y223596D01*
X474730Y223675D01*
X474734Y223733D01*
X474749Y223790D01*
X474746Y223874D01*
X474753Y223958D01*
X474742Y224016D01*
X474740Y224074D01*
X474714Y224154D01*
X474697Y224237D01*
X474670Y224289D01*
X474668Y224295D01*
X474667Y224301D01*
X474666Y224302D01*
X474652Y224345D01*
X474612Y224401D01*
X474566Y224489D01*
X474536Y224521D01*
X474521Y224545D01*
X474484Y224580D01*
X474457Y224618D01*
X474017Y225058D01*
X474017Y230742D01*
X474457Y231182D01*
X474493Y231229D01*
X474535Y231269D01*
X474578Y231342D01*
X474628Y231409D01*
X474649Y231464D01*
X474679Y231514D01*
X474699Y231596D01*
X474730Y231675D01*
X474734Y231733D01*
X474749Y231790D01*
X474746Y231874D01*
X474753Y231958D01*
X474742Y232016D01*
X474740Y232074D01*
X474714Y232154D01*
X474697Y232237D01*
X474670Y232289D01*
X474652Y232345D01*
X474612Y232401D01*
X474566Y232489D01*
X474497Y232562D01*
X474457Y232618D01*
X474017Y233058D01*
X474017Y238742D01*
X474457Y239182D01*
X474493Y239229D01*
X474535Y239269D01*
X474578Y239342D01*
X474628Y239409D01*
X474649Y239464D01*
X474679Y239514D01*
X474699Y239596D01*
X474730Y239675D01*
X474734Y239733D01*
X474749Y239790D01*
X474746Y239874D01*
X474753Y239958D01*
X474742Y240016D01*
X474740Y240074D01*
X474714Y240154D01*
X474697Y240237D01*
X474670Y240289D01*
X474652Y240345D01*
X474612Y240401D01*
X474566Y240489D01*
X474497Y240562D01*
X474457Y240618D01*
X474017Y241058D01*
X474017Y246742D01*
X474457Y247182D01*
X474492Y247229D01*
X474535Y247269D01*
X474578Y247342D01*
X474628Y247409D01*
X474649Y247464D01*
X474679Y247514D01*
X474700Y247596D01*
X474730Y247675D01*
X474734Y247733D01*
X474749Y247790D01*
X474746Y247874D01*
X474753Y247958D01*
X474742Y248016D01*
X474740Y248074D01*
X474714Y248154D01*
X474697Y248237D01*
X474670Y248289D01*
X474652Y248345D01*
X474612Y248401D01*
X474566Y248489D01*
X474498Y248562D01*
X474457Y248618D01*
X474017Y249058D01*
X474017Y254742D01*
X474457Y255182D01*
X474493Y255229D01*
X474535Y255269D01*
X474578Y255342D01*
X474628Y255409D01*
X474649Y255464D01*
X474679Y255514D01*
X474699Y255596D01*
X474730Y255675D01*
X474734Y255733D01*
X474749Y255790D01*
X474746Y255874D01*
X474753Y255958D01*
X474742Y256016D01*
X474740Y256074D01*
X474714Y256154D01*
X474697Y256237D01*
X474670Y256289D01*
X474652Y256345D01*
X474612Y256401D01*
X474566Y256489D01*
X474497Y256562D01*
X474457Y256618D01*
X474017Y257058D01*
X474017Y262742D01*
X474457Y263182D01*
X474493Y263229D01*
X474535Y263269D01*
X474578Y263342D01*
X474628Y263409D01*
X474649Y263464D01*
X474679Y263514D01*
X474699Y263596D01*
X474730Y263675D01*
X474734Y263733D01*
X474749Y263790D01*
X474746Y263874D01*
X474753Y263958D01*
X474742Y264016D01*
X474740Y264074D01*
X474714Y264154D01*
X474697Y264237D01*
X474670Y264289D01*
X474652Y264345D01*
X474612Y264401D01*
X474566Y264489D01*
X474497Y264562D01*
X474457Y264618D01*
X474017Y265058D01*
X474017Y270742D01*
X474457Y271182D01*
X474493Y271229D01*
X474535Y271269D01*
X474578Y271342D01*
X474628Y271409D01*
X474649Y271464D01*
X474679Y271514D01*
X474699Y271596D01*
X474730Y271675D01*
X474734Y271733D01*
X474749Y271790D01*
X474746Y271874D01*
X474753Y271958D01*
X474742Y272016D01*
X474740Y272074D01*
X474714Y272154D01*
X474697Y272237D01*
X474670Y272289D01*
X474652Y272345D01*
X474612Y272401D01*
X474566Y272489D01*
X474497Y272562D01*
X474457Y272618D01*
X474017Y273058D01*
X474017Y278742D01*
X475208Y279933D01*
X487734Y279933D01*
X487792Y279941D01*
X487850Y279939D01*
X487932Y279961D01*
X488016Y279973D01*
X488069Y279996D01*
X488125Y280011D01*
X488198Y280054D01*
X488275Y280089D01*
X488320Y280127D01*
X488370Y280156D01*
X488428Y280218D01*
X488492Y280272D01*
X488524Y280321D01*
X488564Y280364D01*
X488603Y280439D01*
X488650Y280509D01*
X488667Y280565D01*
X488694Y280617D01*
X488705Y280685D01*
X488735Y280780D01*
X488738Y280880D01*
X488749Y280948D01*
X488749Y332019D01*
X488737Y332105D01*
X488734Y332193D01*
X488717Y332245D01*
X488709Y332300D01*
X488674Y332380D01*
X488647Y332463D01*
X488619Y332502D01*
X488593Y332560D01*
X488497Y332673D01*
X488452Y332737D01*
X479351Y341837D01*
X479351Y359135D01*
X479347Y359164D01*
X479350Y359193D01*
X479327Y359304D01*
X479311Y359416D01*
X479299Y359443D01*
X479294Y359472D01*
X479241Y359572D01*
X479195Y359676D01*
X479176Y359698D01*
X479163Y359724D01*
X479085Y359806D01*
X479012Y359893D01*
X478987Y359909D01*
X478967Y359930D01*
X478869Y359987D01*
X478775Y360050D01*
X478747Y360059D01*
X478722Y360074D01*
X478612Y360102D01*
X478504Y360136D01*
X478474Y360137D01*
X478446Y360144D01*
X478333Y360140D01*
X478220Y360143D01*
X478191Y360136D01*
X478162Y360135D01*
X478054Y360100D01*
X477945Y360072D01*
X477919Y360057D01*
X477891Y360048D01*
X477827Y360002D01*
X477700Y359926D01*
X477657Y359881D01*
X477618Y359853D01*
X476375Y358609D01*
X473575Y357450D01*
X473574Y357449D01*
X473573Y357449D01*
X473454Y357378D01*
X473331Y357305D01*
X473330Y357304D01*
X473328Y357303D01*
X473231Y357200D01*
X473135Y357099D01*
X473135Y357097D01*
X473134Y357096D01*
X473069Y356970D01*
X473005Y356846D01*
X473005Y356844D01*
X473004Y356843D01*
X473002Y356828D01*
X472950Y356567D01*
X472953Y356537D01*
X472949Y356512D01*
X472949Y314798D01*
X460167Y302016D01*
X460149Y301992D01*
X460127Y301973D01*
X460064Y301879D01*
X459996Y301789D01*
X459986Y301761D01*
X459969Y301737D01*
X459935Y301629D01*
X459895Y301523D01*
X459892Y301494D01*
X459884Y301466D01*
X459881Y301352D01*
X459871Y301240D01*
X459877Y301211D01*
X459876Y301182D01*
X459905Y301072D01*
X459927Y300961D01*
X459941Y300935D01*
X459948Y300907D01*
X460006Y300809D01*
X460058Y300709D01*
X460078Y300687D01*
X460093Y300662D01*
X460176Y300585D01*
X460254Y300503D01*
X460279Y300488D01*
X460301Y300468D01*
X460401Y300416D01*
X460499Y300359D01*
X460528Y300352D01*
X460554Y300338D01*
X460631Y300325D01*
X460775Y300289D01*
X460837Y300291D01*
X460885Y300283D01*
X461242Y300283D01*
X461682Y299843D01*
X461729Y299807D01*
X461769Y299765D01*
X461842Y299722D01*
X461909Y299672D01*
X461964Y299651D01*
X462014Y299621D01*
X462096Y299601D01*
X462175Y299570D01*
X462233Y299566D01*
X462290Y299551D01*
X462374Y299554D01*
X462458Y299547D01*
X462516Y299558D01*
X462574Y299560D01*
X462654Y299586D01*
X462737Y299603D01*
X462789Y299630D01*
X462845Y299648D01*
X462901Y299688D01*
X462989Y299734D01*
X463062Y299803D01*
X463118Y299843D01*
X463558Y300283D01*
X469242Y300283D01*
X470433Y299092D01*
X470433Y284708D01*
X469242Y283517D01*
X463558Y283517D01*
X463118Y283957D01*
X463071Y283992D01*
X463031Y284035D01*
X462958Y284078D01*
X462891Y284128D01*
X462836Y284149D01*
X462786Y284179D01*
X462704Y284200D01*
X462625Y284230D01*
X462567Y284234D01*
X462510Y284249D01*
X462426Y284246D01*
X462342Y284253D01*
X462284Y284242D01*
X462226Y284240D01*
X462146Y284214D01*
X462063Y284197D01*
X462011Y284170D01*
X461955Y284152D01*
X461899Y284112D01*
X461811Y284066D01*
X461738Y283998D01*
X461682Y283957D01*
X461242Y283517D01*
X455558Y283517D01*
X455118Y283957D01*
X455071Y283992D01*
X455031Y284035D01*
X454958Y284078D01*
X454891Y284128D01*
X454836Y284149D01*
X454786Y284179D01*
X454704Y284200D01*
X454625Y284230D01*
X454567Y284234D01*
X454510Y284249D01*
X454426Y284246D01*
X454342Y284253D01*
X454284Y284242D01*
X454226Y284240D01*
X454146Y284214D01*
X454063Y284197D01*
X454011Y284170D01*
X453955Y284152D01*
X453899Y284112D01*
X453811Y284066D01*
X453738Y283998D01*
X453682Y283957D01*
X453242Y283517D01*
X447558Y283517D01*
X447118Y283957D01*
X447071Y283992D01*
X447031Y284035D01*
X446958Y284078D01*
X446891Y284128D01*
X446836Y284149D01*
X446786Y284179D01*
X446704Y284200D01*
X446625Y284230D01*
X446567Y284234D01*
X446510Y284249D01*
X446426Y284246D01*
X446342Y284253D01*
X446284Y284242D01*
X446226Y284240D01*
X446146Y284214D01*
X446063Y284197D01*
X446011Y284170D01*
X445955Y284152D01*
X445899Y284112D01*
X445811Y284066D01*
X445738Y283998D01*
X445682Y283957D01*
X445242Y283517D01*
X439558Y283517D01*
X439118Y283957D01*
X439071Y283992D01*
X439031Y284035D01*
X438958Y284078D01*
X438891Y284128D01*
X438836Y284149D01*
X438786Y284179D01*
X438704Y284200D01*
X438625Y284230D01*
X438567Y284234D01*
X438510Y284249D01*
X438426Y284246D01*
X438342Y284253D01*
X438284Y284242D01*
X438226Y284240D01*
X438146Y284214D01*
X438063Y284197D01*
X438011Y284170D01*
X437955Y284152D01*
X437899Y284112D01*
X437811Y284066D01*
X437738Y283998D01*
X437682Y283957D01*
X437242Y283517D01*
X431558Y283517D01*
X431118Y283957D01*
X431071Y283992D01*
X431031Y284035D01*
X430958Y284078D01*
X430891Y284128D01*
X430836Y284149D01*
X430786Y284179D01*
X430704Y284200D01*
X430625Y284230D01*
X430567Y284234D01*
X430510Y284249D01*
X430426Y284246D01*
X430342Y284253D01*
X430284Y284242D01*
X430226Y284240D01*
X430146Y284214D01*
X430063Y284197D01*
X430011Y284170D01*
X429955Y284152D01*
X429899Y284112D01*
X429811Y284066D01*
X429738Y283998D01*
X429682Y283957D01*
X429242Y283517D01*
X423558Y283517D01*
X423118Y283957D01*
X423071Y283992D01*
X423031Y284035D01*
X422958Y284078D01*
X422891Y284128D01*
X422836Y284149D01*
X422786Y284179D01*
X422704Y284200D01*
X422625Y284230D01*
X422567Y284234D01*
X422510Y284249D01*
X422426Y284246D01*
X422342Y284253D01*
X422284Y284242D01*
X422226Y284240D01*
X422146Y284214D01*
X422063Y284197D01*
X422011Y284170D01*
X421955Y284152D01*
X421899Y284112D01*
X421811Y284066D01*
X421738Y283998D01*
X421682Y283957D01*
X421242Y283517D01*
X415558Y283517D01*
X415118Y283957D01*
X415071Y283992D01*
X415031Y284035D01*
X414958Y284078D01*
X414891Y284128D01*
X414836Y284149D01*
X414786Y284179D01*
X414704Y284200D01*
X414625Y284230D01*
X414567Y284234D01*
X414510Y284249D01*
X414426Y284246D01*
X414342Y284253D01*
X414284Y284242D01*
X414226Y284240D01*
X414146Y284214D01*
X414063Y284197D01*
X414011Y284170D01*
X413955Y284152D01*
X413899Y284112D01*
X413811Y284066D01*
X413738Y283998D01*
X413682Y283957D01*
X413242Y283517D01*
X407558Y283517D01*
X407118Y283957D01*
X407071Y283993D01*
X407031Y284035D01*
X406958Y284078D01*
X406891Y284128D01*
X406836Y284149D01*
X406786Y284179D01*
X406704Y284199D01*
X406625Y284230D01*
X406567Y284234D01*
X406510Y284249D01*
X406426Y284246D01*
X406342Y284253D01*
X406284Y284242D01*
X406226Y284240D01*
X406146Y284214D01*
X406063Y284197D01*
X406011Y284170D01*
X405955Y284152D01*
X405899Y284112D01*
X405811Y284066D01*
X405738Y283997D01*
X405682Y283957D01*
X405242Y283517D01*
X399558Y283517D01*
X399118Y283957D01*
X399071Y283993D01*
X399031Y284035D01*
X398958Y284078D01*
X398891Y284128D01*
X398836Y284149D01*
X398786Y284179D01*
X398704Y284199D01*
X398625Y284230D01*
X398567Y284234D01*
X398510Y284249D01*
X398426Y284246D01*
X398342Y284253D01*
X398284Y284242D01*
X398226Y284240D01*
X398146Y284214D01*
X398063Y284197D01*
X398011Y284170D01*
X397955Y284152D01*
X397899Y284112D01*
X397811Y284066D01*
X397738Y283997D01*
X397682Y283957D01*
X397242Y283517D01*
X391558Y283517D01*
X391118Y283957D01*
X391071Y283993D01*
X391031Y284035D01*
X390958Y284078D01*
X390891Y284128D01*
X390836Y284149D01*
X390786Y284179D01*
X390704Y284199D01*
X390625Y284230D01*
X390567Y284234D01*
X390510Y284249D01*
X390426Y284246D01*
X390342Y284253D01*
X390284Y284242D01*
X390226Y284240D01*
X390146Y284214D01*
X390063Y284197D01*
X390011Y284170D01*
X389955Y284152D01*
X389899Y284112D01*
X389811Y284066D01*
X389738Y283997D01*
X389682Y283957D01*
X389242Y283517D01*
X383558Y283517D01*
X383118Y283957D01*
X383071Y283993D01*
X383031Y284035D01*
X382958Y284078D01*
X382891Y284128D01*
X382836Y284149D01*
X382786Y284179D01*
X382704Y284199D01*
X382625Y284230D01*
X382567Y284234D01*
X382510Y284249D01*
X382426Y284246D01*
X382342Y284253D01*
X382284Y284242D01*
X382226Y284240D01*
X382146Y284214D01*
X382063Y284197D01*
X382011Y284170D01*
X381955Y284152D01*
X381899Y284112D01*
X381811Y284066D01*
X381738Y283997D01*
X381682Y283957D01*
X381242Y283517D01*
X375558Y283517D01*
X375118Y283957D01*
X375071Y283993D01*
X375031Y284035D01*
X374958Y284078D01*
X374891Y284128D01*
X374836Y284149D01*
X374786Y284179D01*
X374704Y284199D01*
X374625Y284230D01*
X374567Y284234D01*
X374510Y284249D01*
X374426Y284246D01*
X374342Y284253D01*
X374284Y284242D01*
X374226Y284240D01*
X374146Y284214D01*
X374063Y284197D01*
X374011Y284170D01*
X373955Y284152D01*
X373899Y284112D01*
X373811Y284066D01*
X373738Y283997D01*
X373682Y283957D01*
X373242Y283517D01*
X367558Y283517D01*
X367118Y283957D01*
X367071Y283993D01*
X367031Y284035D01*
X366958Y284078D01*
X366891Y284128D01*
X366836Y284149D01*
X366786Y284179D01*
X366704Y284199D01*
X366625Y284230D01*
X366567Y284234D01*
X366510Y284249D01*
X366426Y284246D01*
X366342Y284253D01*
X366284Y284242D01*
X366226Y284240D01*
X366146Y284214D01*
X366063Y284197D01*
X366011Y284170D01*
X365955Y284152D01*
X365899Y284112D01*
X365811Y284066D01*
X365738Y283997D01*
X365682Y283957D01*
X365242Y283517D01*
X359558Y283517D01*
X359118Y283957D01*
X359071Y283993D01*
X359031Y284035D01*
X358958Y284078D01*
X358891Y284128D01*
X358836Y284149D01*
X358786Y284179D01*
X358704Y284199D01*
X358625Y284230D01*
X358567Y284234D01*
X358510Y284249D01*
X358426Y284246D01*
X358342Y284253D01*
X358284Y284242D01*
X358226Y284240D01*
X358146Y284214D01*
X358063Y284197D01*
X358011Y284170D01*
X357955Y284152D01*
X357899Y284112D01*
X357811Y284066D01*
X357738Y283997D01*
X357682Y283957D01*
X357242Y283517D01*
X351558Y283517D01*
X351118Y283957D01*
X351071Y283993D01*
X351031Y284035D01*
X350958Y284078D01*
X350891Y284128D01*
X350836Y284149D01*
X350786Y284179D01*
X350704Y284199D01*
X350625Y284230D01*
X350567Y284234D01*
X350510Y284249D01*
X350426Y284246D01*
X350342Y284253D01*
X350284Y284242D01*
X350226Y284240D01*
X350146Y284214D01*
X350063Y284197D01*
X350011Y284170D01*
X349955Y284152D01*
X349899Y284112D01*
X349811Y284066D01*
X349738Y283997D01*
X349682Y283957D01*
X349242Y283517D01*
X343558Y283517D01*
X342367Y284708D01*
X342367Y293765D01*
X342363Y293794D01*
X342366Y293823D01*
X342343Y293935D01*
X342327Y294047D01*
X342315Y294073D01*
X342310Y294102D01*
X342258Y294203D01*
X342211Y294306D01*
X342192Y294329D01*
X342179Y294355D01*
X342101Y294437D01*
X342028Y294523D01*
X342003Y294539D01*
X341983Y294561D01*
X341885Y294618D01*
X341791Y294681D01*
X341763Y294690D01*
X341738Y294704D01*
X341628Y294732D01*
X341520Y294766D01*
X341490Y294767D01*
X341462Y294774D01*
X341349Y294771D01*
X341236Y294774D01*
X341207Y294766D01*
X341178Y294765D01*
X341070Y294731D01*
X340961Y294702D01*
X340935Y294687D01*
X340907Y294678D01*
X340844Y294632D01*
X340716Y294557D01*
X340673Y294511D01*
X340634Y294483D01*
X335202Y289051D01*
X278488Y289051D01*
X278487Y289051D01*
X278485Y289051D01*
X278345Y289031D01*
X278207Y289011D01*
X278205Y289011D01*
X278204Y289011D01*
X278078Y288954D01*
X277947Y288895D01*
X277946Y288894D01*
X277945Y288893D01*
X277837Y288802D01*
X277730Y288712D01*
X277729Y288710D01*
X277728Y288709D01*
X277720Y288696D01*
X277573Y288475D01*
X277563Y288446D01*
X277550Y288425D01*
X276390Y285625D01*
X273175Y282410D01*
X268974Y280669D01*
X264426Y280669D01*
X260225Y282410D01*
X257010Y285625D01*
X255269Y289826D01*
X255269Y294374D01*
X257010Y298575D01*
X260225Y301790D01*
X264426Y303531D01*
X268974Y303531D01*
X273175Y301790D01*
X276390Y298575D01*
X277550Y295775D01*
X277551Y295774D01*
X277551Y295773D01*
X277624Y295650D01*
X277695Y295531D01*
X277696Y295530D01*
X277697Y295528D01*
X277800Y295431D01*
X277901Y295335D01*
X277903Y295335D01*
X277904Y295334D01*
X278030Y295269D01*
X278154Y295205D01*
X278156Y295205D01*
X278157Y295204D01*
X278172Y295202D01*
X278433Y295150D01*
X278463Y295153D01*
X278488Y295149D01*
X332256Y295149D01*
X332343Y295161D01*
X332430Y295164D01*
X332483Y295181D01*
X332538Y295189D01*
X332617Y295224D01*
X332701Y295251D01*
X332740Y295279D01*
X332797Y295305D01*
X332910Y295401D01*
X332974Y295446D01*
X341875Y304347D01*
X355851Y304347D01*
X355880Y304351D01*
X355909Y304348D01*
X356021Y304371D01*
X356133Y304387D01*
X356159Y304399D01*
X356188Y304404D01*
X356289Y304456D01*
X356392Y304503D01*
X356415Y304522D01*
X356441Y304535D01*
X356523Y304613D01*
X356609Y304686D01*
X356625Y304711D01*
X356647Y304731D01*
X356704Y304829D01*
X356767Y304923D01*
X356776Y304951D01*
X356790Y304976D01*
X356818Y305086D01*
X356852Y305194D01*
X356853Y305224D01*
X356860Y305252D01*
X356857Y305365D01*
X356860Y305478D01*
X356852Y305507D01*
X356851Y305536D01*
X356817Y305644D01*
X356788Y305753D01*
X356773Y305779D01*
X356764Y305807D01*
X356718Y305870D01*
X356643Y305998D01*
X356597Y306041D01*
X356569Y306080D01*
X349772Y312877D01*
X349725Y312912D01*
X349685Y312955D01*
X349612Y312997D01*
X349545Y313048D01*
X349490Y313069D01*
X349440Y313098D01*
X349358Y313119D01*
X349279Y313149D01*
X349221Y313154D01*
X349164Y313168D01*
X349080Y313166D01*
X348996Y313173D01*
X348938Y313161D01*
X348880Y313159D01*
X348800Y313133D01*
X348717Y313117D01*
X348665Y313090D01*
X348609Y313072D01*
X348553Y313032D01*
X348465Y312986D01*
X348392Y312917D01*
X348336Y312877D01*
X346929Y311470D01*
X344315Y310387D01*
X341485Y310387D01*
X338871Y311470D01*
X336870Y313471D01*
X335787Y316085D01*
X335787Y318915D01*
X336870Y321529D01*
X338871Y323530D01*
X341485Y324613D01*
X343585Y324613D01*
X343614Y324617D01*
X343644Y324614D01*
X343755Y324637D01*
X343867Y324653D01*
X343893Y324665D01*
X343922Y324670D01*
X344023Y324723D01*
X344126Y324769D01*
X344148Y324788D01*
X344175Y324801D01*
X344257Y324879D01*
X344343Y324952D01*
X344359Y324977D01*
X344381Y324997D01*
X344438Y325095D01*
X344501Y325189D01*
X344510Y325217D01*
X344524Y325242D01*
X344552Y325352D01*
X344586Y325460D01*
X344587Y325490D01*
X344594Y325518D01*
X344591Y325631D01*
X344594Y325744D01*
X344586Y325773D01*
X344585Y325802D01*
X344551Y325910D01*
X344522Y326019D01*
X344507Y326045D01*
X344498Y326073D01*
X344452Y326137D01*
X344377Y326264D01*
X344331Y326307D01*
X344303Y326346D01*
X343795Y326854D01*
X343725Y326907D01*
X343661Y326966D01*
X343612Y326992D01*
X343568Y327025D01*
X343486Y327056D01*
X343408Y327096D01*
X343361Y327104D01*
X343302Y327126D01*
X343155Y327138D01*
X343077Y327151D01*
X303888Y327151D01*
X303887Y327151D01*
X303885Y327151D01*
X303745Y327131D01*
X303607Y327111D01*
X303605Y327111D01*
X303604Y327111D01*
X303478Y327054D01*
X303347Y326995D01*
X303346Y326994D01*
X303345Y326993D01*
X303237Y326902D01*
X303130Y326812D01*
X303129Y326810D01*
X303128Y326809D01*
X303120Y326796D01*
X302973Y326575D01*
X302963Y326546D01*
X302950Y326525D01*
X301790Y323725D01*
X298575Y320510D01*
X294374Y318769D01*
X289826Y318769D01*
X285625Y320510D01*
X282410Y323725D01*
X280669Y327926D01*
X280669Y332474D01*
X282410Y336675D01*
X285625Y339890D01*
X289826Y341631D01*
X294374Y341631D01*
X298575Y339890D01*
X301790Y336675D01*
X302950Y333875D01*
X302951Y333874D01*
X302951Y333873D01*
X303022Y333754D01*
X303095Y333631D01*
X303096Y333630D01*
X303097Y333628D01*
X303200Y333531D01*
X303301Y333435D01*
X303303Y333435D01*
X303304Y333434D01*
X303430Y333369D01*
X303554Y333305D01*
X303556Y333305D01*
X303557Y333304D01*
X303572Y333302D01*
X303833Y333250D01*
X303863Y333253D01*
X303888Y333249D01*
X346023Y333249D01*
X378692Y300580D01*
X378762Y300528D01*
X378826Y300468D01*
X378875Y300442D01*
X378919Y300409D01*
X379001Y300378D01*
X379079Y300338D01*
X379126Y300330D01*
X379185Y300308D01*
X379332Y300296D01*
X379410Y300283D01*
X381242Y300283D01*
X381682Y299843D01*
X381729Y299808D01*
X381769Y299765D01*
X381842Y299722D01*
X381909Y299672D01*
X381964Y299651D01*
X382014Y299621D01*
X382096Y299600D01*
X382175Y299570D01*
X382233Y299566D01*
X382290Y299551D01*
X382374Y299554D01*
X382458Y299547D01*
X382516Y299558D01*
X382574Y299560D01*
X382654Y299586D01*
X382737Y299603D01*
X382789Y299630D01*
X382845Y299648D01*
X382901Y299688D01*
X382989Y299734D01*
X383062Y299802D01*
X383118Y299843D01*
X383558Y300283D01*
X389242Y300283D01*
X389682Y299843D01*
X389729Y299808D01*
X389769Y299765D01*
X389842Y299722D01*
X389909Y299672D01*
X389964Y299651D01*
X390014Y299621D01*
X390096Y299600D01*
X390175Y299570D01*
X390233Y299566D01*
X390290Y299551D01*
X390374Y299554D01*
X390458Y299547D01*
X390516Y299558D01*
X390574Y299560D01*
X390654Y299586D01*
X390737Y299603D01*
X390789Y299630D01*
X390845Y299648D01*
X390901Y299688D01*
X390989Y299734D01*
X391062Y299802D01*
X391118Y299843D01*
X391558Y300283D01*
X397242Y300283D01*
X397682Y299843D01*
X397729Y299808D01*
X397769Y299765D01*
X397842Y299722D01*
X397909Y299672D01*
X397964Y299651D01*
X398014Y299621D01*
X398096Y299600D01*
X398175Y299570D01*
X398233Y299566D01*
X398290Y299551D01*
X398374Y299554D01*
X398458Y299547D01*
X398516Y299558D01*
X398574Y299560D01*
X398654Y299586D01*
X398737Y299603D01*
X398789Y299630D01*
X398845Y299648D01*
X398901Y299688D01*
X398989Y299734D01*
X399062Y299802D01*
X399118Y299843D01*
X399558Y300283D01*
X404155Y300283D01*
X404184Y300287D01*
X404213Y300284D01*
X404324Y300307D01*
X404436Y300323D01*
X404463Y300335D01*
X404492Y300340D01*
X404592Y300392D01*
X404696Y300439D01*
X404718Y300458D01*
X404744Y300471D01*
X404826Y300549D01*
X404913Y300622D01*
X404929Y300647D01*
X404950Y300667D01*
X405007Y300765D01*
X405070Y300859D01*
X405079Y300887D01*
X405094Y300912D01*
X405122Y301022D01*
X405156Y301130D01*
X405157Y301160D01*
X405164Y301188D01*
X405160Y301301D01*
X405163Y301414D01*
X405156Y301443D01*
X405155Y301472D01*
X405120Y301580D01*
X405091Y301689D01*
X405076Y301715D01*
X405067Y301743D01*
X405022Y301806D01*
X404946Y301934D01*
X404901Y301977D01*
X404873Y302016D01*
X349080Y357809D01*
X349078Y357810D01*
X349077Y357811D01*
X348962Y357897D01*
X348852Y357980D01*
X348851Y357980D01*
X348850Y357981D01*
X348716Y358032D01*
X348587Y358081D01*
X348585Y358081D01*
X348584Y358082D01*
X348439Y358093D01*
X348303Y358104D01*
X348302Y358104D01*
X348300Y358104D01*
X348285Y358101D01*
X348025Y358049D01*
X347998Y358034D01*
X347973Y358029D01*
X345174Y356869D01*
X340626Y356869D01*
X336425Y358610D01*
X333210Y361825D01*
X331469Y366026D01*
X331469Y370574D01*
X333210Y374775D01*
X336425Y377990D01*
X340626Y379731D01*
X345174Y379731D01*
X349375Y377990D01*
X352590Y374775D01*
X354331Y370574D01*
X354331Y366026D01*
X353171Y363227D01*
X353171Y363225D01*
X353170Y363224D01*
X353136Y363090D01*
X353100Y362951D01*
X353100Y362950D01*
X353100Y362948D01*
X353104Y362808D01*
X353108Y362667D01*
X353109Y362666D01*
X353109Y362664D01*
X353152Y362531D01*
X353195Y362397D01*
X353196Y362395D01*
X353196Y362394D01*
X353205Y362382D01*
X353353Y362160D01*
X353377Y362141D01*
X353391Y362120D01*
X411365Y304146D01*
X413618Y301893D01*
X413642Y301876D01*
X413661Y301853D01*
X413755Y301791D01*
X413845Y301723D01*
X413873Y301712D01*
X413897Y301696D01*
X414005Y301662D01*
X414111Y301621D01*
X414140Y301619D01*
X414168Y301610D01*
X414282Y301607D01*
X414394Y301598D01*
X414423Y301603D01*
X414452Y301603D01*
X414562Y301631D01*
X414673Y301654D01*
X414699Y301667D01*
X414727Y301675D01*
X414825Y301732D01*
X414925Y301785D01*
X414947Y301805D01*
X414972Y301820D01*
X415049Y301902D01*
X415131Y301980D01*
X415146Y302006D01*
X415166Y302027D01*
X415218Y302128D01*
X415275Y302226D01*
X415282Y302254D01*
X415296Y302280D01*
X415309Y302358D01*
X415345Y302501D01*
X415343Y302564D01*
X415351Y302611D01*
X415351Y316517D01*
X415339Y316603D01*
X415336Y316691D01*
X415319Y316743D01*
X415311Y316798D01*
X415276Y316878D01*
X415249Y316961D01*
X415221Y317000D01*
X415195Y317058D01*
X415099Y317171D01*
X415054Y317235D01*
X374480Y357809D01*
X374478Y357810D01*
X374477Y357811D01*
X374362Y357897D01*
X374252Y357980D01*
X374251Y357980D01*
X374250Y357981D01*
X374116Y358032D01*
X373987Y358081D01*
X373985Y358081D01*
X373984Y358082D01*
X373839Y358093D01*
X373703Y358104D01*
X373702Y358104D01*
X373700Y358104D01*
X373685Y358101D01*
X373425Y358049D01*
X373398Y358034D01*
X373373Y358029D01*
X370574Y356869D01*
X366026Y356869D01*
X361825Y358610D01*
X358610Y361825D01*
X356869Y366026D01*
X356869Y370574D01*
X358610Y374775D01*
X361825Y377990D01*
X366026Y379731D01*
X370574Y379731D01*
X374775Y377990D01*
X377990Y374775D01*
X379731Y370574D01*
X379731Y366026D01*
X378571Y363227D01*
X378571Y363225D01*
X378570Y363224D01*
X378536Y363090D01*
X378500Y362951D01*
X378500Y362950D01*
X378500Y362948D01*
X378504Y362808D01*
X378508Y362667D01*
X378509Y362666D01*
X378509Y362664D01*
X378552Y362531D01*
X378595Y362397D01*
X378596Y362395D01*
X378596Y362394D01*
X378605Y362382D01*
X378753Y362160D01*
X378777Y362141D01*
X378791Y362120D01*
X419365Y321546D01*
X421618Y319293D01*
X421642Y319276D01*
X421661Y319253D01*
X421755Y319191D01*
X421845Y319123D01*
X421873Y319112D01*
X421897Y319096D01*
X422005Y319062D01*
X422111Y319021D01*
X422140Y319019D01*
X422168Y319010D01*
X422282Y319007D01*
X422394Y318998D01*
X422423Y319003D01*
X422452Y319003D01*
X422562Y319031D01*
X422673Y319054D01*
X422699Y319067D01*
X422727Y319075D01*
X422825Y319132D01*
X422925Y319185D01*
X422947Y319205D01*
X422972Y319220D01*
X423049Y319302D01*
X423131Y319380D01*
X423146Y319406D01*
X423166Y319427D01*
X423218Y319528D01*
X423275Y319626D01*
X423282Y319654D01*
X423296Y319680D01*
X423309Y319758D01*
X423345Y319901D01*
X423343Y319964D01*
X423351Y320011D01*
X423351Y333917D01*
X423339Y334003D01*
X423336Y334091D01*
X423319Y334143D01*
X423311Y334198D01*
X423276Y334278D01*
X423249Y334361D01*
X423221Y334400D01*
X423195Y334458D01*
X423099Y334571D01*
X423054Y334635D01*
X399880Y357809D01*
X399878Y357810D01*
X399877Y357811D01*
X399764Y357896D01*
X399652Y357980D01*
X399651Y357980D01*
X399650Y357981D01*
X399518Y358031D01*
X399387Y358081D01*
X399385Y358081D01*
X399384Y358082D01*
X399239Y358093D01*
X399103Y358104D01*
X399102Y358104D01*
X399100Y358104D01*
X399085Y358101D01*
X398825Y358049D01*
X398798Y358035D01*
X398773Y358029D01*
X395974Y356869D01*
X391426Y356869D01*
X387225Y358610D01*
X384010Y361825D01*
X382269Y366026D01*
X382269Y370574D01*
X384010Y374775D01*
X387225Y377990D01*
X391426Y379731D01*
X395974Y379731D01*
X400175Y377990D01*
X403390Y374775D01*
X405131Y370574D01*
X405131Y366026D01*
X403971Y363227D01*
X403971Y363225D01*
X403970Y363224D01*
X403936Y363090D01*
X403900Y362951D01*
X403900Y362950D01*
X403900Y362948D01*
X403904Y362808D01*
X403908Y362667D01*
X403909Y362666D01*
X403909Y362664D01*
X403952Y362531D01*
X403995Y362397D01*
X403996Y362395D01*
X403996Y362394D01*
X404005Y362382D01*
X404153Y362160D01*
X404177Y362141D01*
X404191Y362120D01*
X427365Y338946D01*
X429618Y336693D01*
X429642Y336676D01*
X429661Y336653D01*
X429755Y336591D01*
X429845Y336523D01*
X429873Y336512D01*
X429897Y336496D01*
X430005Y336462D01*
X430111Y336421D01*
X430140Y336419D01*
X430168Y336410D01*
X430282Y336407D01*
X430394Y336398D01*
X430423Y336403D01*
X430452Y336403D01*
X430562Y336431D01*
X430673Y336454D01*
X430699Y336467D01*
X430727Y336475D01*
X430825Y336532D01*
X430925Y336585D01*
X430947Y336605D01*
X430972Y336620D01*
X431049Y336702D01*
X431131Y336780D01*
X431146Y336806D01*
X431166Y336827D01*
X431218Y336928D01*
X431275Y337026D01*
X431282Y337054D01*
X431296Y337080D01*
X431309Y337158D01*
X431345Y337301D01*
X431343Y337364D01*
X431351Y337411D01*
X431351Y351317D01*
X431339Y351403D01*
X431336Y351491D01*
X431319Y351543D01*
X431311Y351598D01*
X431276Y351678D01*
X431249Y351761D01*
X431221Y351800D01*
X431195Y351858D01*
X431099Y351971D01*
X431054Y352035D01*
X425280Y357809D01*
X425278Y357810D01*
X425277Y357811D01*
X425164Y357896D01*
X425052Y357980D01*
X425051Y357980D01*
X425050Y357981D01*
X424918Y358031D01*
X424787Y358081D01*
X424785Y358081D01*
X424784Y358082D01*
X424639Y358093D01*
X424503Y358104D01*
X424502Y358104D01*
X424500Y358104D01*
X424485Y358101D01*
X424225Y358049D01*
X424198Y358035D01*
X424173Y358029D01*
X421374Y356869D01*
X416826Y356869D01*
X412625Y358610D01*
X409410Y361825D01*
X407669Y366026D01*
X407669Y370574D01*
X409410Y374775D01*
X412625Y377990D01*
X416826Y379731D01*
X421374Y379731D01*
X425575Y377990D01*
X428790Y374775D01*
X430531Y370574D01*
X430531Y366026D01*
X429371Y363227D01*
X429371Y363225D01*
X429370Y363224D01*
X429336Y363090D01*
X429300Y362951D01*
X429300Y362950D01*
X429300Y362948D01*
X429304Y362808D01*
X429308Y362667D01*
X429309Y362666D01*
X429309Y362664D01*
X429352Y362531D01*
X429395Y362397D01*
X429396Y362395D01*
X429396Y362394D01*
X429405Y362382D01*
X429553Y362160D01*
X429577Y362141D01*
X429591Y362120D01*
X435365Y356346D01*
X435366Y356346D01*
X437449Y354263D01*
X437449Y300624D01*
X437453Y300595D01*
X437450Y300566D01*
X437473Y300455D01*
X437489Y300343D01*
X437501Y300316D01*
X437506Y300287D01*
X437559Y300187D01*
X437605Y300084D01*
X437624Y300061D01*
X437637Y300035D01*
X437715Y299953D01*
X437788Y299867D01*
X437813Y299850D01*
X437833Y299829D01*
X437931Y299772D01*
X438025Y299709D01*
X438053Y299700D01*
X438078Y299685D01*
X438188Y299657D01*
X438296Y299623D01*
X438326Y299622D01*
X438354Y299615D01*
X438467Y299619D01*
X438580Y299616D01*
X438609Y299623D01*
X438638Y299624D01*
X438746Y299659D01*
X438855Y299688D01*
X438881Y299703D01*
X438909Y299712D01*
X438973Y299757D01*
X439100Y299833D01*
X439143Y299879D01*
X439182Y299907D01*
X439558Y300283D01*
X440436Y300283D01*
X440494Y300291D01*
X440552Y300289D01*
X440634Y300311D01*
X440718Y300323D01*
X440771Y300346D01*
X440827Y300361D01*
X440900Y300404D01*
X440977Y300439D01*
X441022Y300477D01*
X441072Y300506D01*
X441130Y300568D01*
X441194Y300622D01*
X441226Y300671D01*
X441266Y300714D01*
X441305Y300789D01*
X441352Y300859D01*
X441369Y300915D01*
X441396Y300967D01*
X441407Y301035D01*
X441437Y301130D01*
X441440Y301230D01*
X441451Y301298D01*
X441451Y356512D01*
X441451Y356513D01*
X441451Y356515D01*
X441431Y356655D01*
X441411Y356793D01*
X441411Y356795D01*
X441411Y356796D01*
X441354Y356922D01*
X441295Y357053D01*
X441294Y357054D01*
X441293Y357055D01*
X441203Y357162D01*
X441112Y357270D01*
X441110Y357271D01*
X441109Y357272D01*
X441096Y357280D01*
X440875Y357427D01*
X440846Y357437D01*
X440825Y357450D01*
X438025Y358610D01*
X434810Y361825D01*
X433069Y366026D01*
X433069Y370574D01*
X434810Y374775D01*
X438025Y377990D01*
X440279Y378924D01*
X440378Y378983D01*
X440480Y379035D01*
X440500Y379055D01*
X440524Y379069D01*
X440603Y379152D01*
X440686Y379231D01*
X440700Y379255D01*
X440719Y379275D01*
X440772Y379377D01*
X440830Y379477D01*
X440837Y379503D01*
X440849Y379528D01*
X440872Y379641D01*
X440900Y379752D01*
X440899Y379780D01*
X440904Y379807D01*
X440894Y379921D01*
X440891Y380036D01*
X440882Y380063D01*
X440880Y380090D01*
X440839Y380197D01*
X440803Y380307D01*
X440789Y380327D01*
X440778Y380356D01*
X440617Y380568D01*
X440608Y380580D01*
X425280Y395909D01*
X425278Y395910D01*
X425277Y395911D01*
X425159Y395999D01*
X425052Y396080D01*
X425051Y396080D01*
X425050Y396081D01*
X424916Y396132D01*
X424787Y396181D01*
X424785Y396181D01*
X424784Y396182D01*
X424639Y396193D01*
X424503Y396204D01*
X424502Y396204D01*
X424500Y396204D01*
X424485Y396201D01*
X424225Y396149D01*
X424198Y396135D01*
X424173Y396129D01*
X421374Y394969D01*
X416826Y394969D01*
X412625Y396710D01*
X409410Y399925D01*
X407669Y404126D01*
X407669Y408674D01*
X409409Y412875D01*
X410599Y414064D01*
X410615Y414085D01*
X410633Y414101D01*
X410634Y414103D01*
X410639Y414107D01*
X410701Y414201D01*
X410770Y414291D01*
X410780Y414319D01*
X410796Y414343D01*
X410830Y414451D01*
X410871Y414557D01*
X410873Y414586D01*
X410882Y414614D01*
X410885Y414728D01*
X410894Y414840D01*
X410889Y414869D01*
X410889Y414898D01*
X410861Y415008D01*
X410838Y415119D01*
X410825Y415145D01*
X410818Y415173D01*
X410760Y415271D01*
X410707Y415371D01*
X410687Y415393D01*
X410672Y415418D01*
X410590Y415495D01*
X410512Y415577D01*
X410486Y415592D01*
X410465Y415612D01*
X410364Y415664D01*
X410266Y415721D01*
X410238Y415728D01*
X410212Y415742D01*
X410134Y415755D01*
X409991Y415791D01*
X409928Y415789D01*
X409881Y415797D01*
X402919Y415797D01*
X402890Y415793D01*
X402861Y415796D01*
X402750Y415773D01*
X402638Y415757D01*
X402611Y415745D01*
X402582Y415740D01*
X402482Y415687D01*
X402378Y415641D01*
X402356Y415622D01*
X402330Y415609D01*
X402248Y415531D01*
X402161Y415458D01*
X402145Y415433D01*
X402124Y415413D01*
X402067Y415315D01*
X402004Y415221D01*
X401995Y415193D01*
X401980Y415168D01*
X401952Y415058D01*
X401918Y414950D01*
X401917Y414920D01*
X401910Y414892D01*
X401914Y414779D01*
X401911Y414666D01*
X401918Y414637D01*
X401919Y414608D01*
X401954Y414500D01*
X401982Y414391D01*
X401997Y414365D01*
X402006Y414337D01*
X402052Y414273D01*
X402128Y414146D01*
X402133Y414141D01*
X402174Y414102D01*
X402201Y414064D01*
X403391Y412875D01*
X405131Y408674D01*
X405131Y404126D01*
X403390Y399925D01*
X400175Y396710D01*
X395974Y394969D01*
X391426Y394969D01*
X387225Y396710D01*
X384010Y399925D01*
X382269Y404126D01*
X382269Y405808D01*
X382265Y405837D01*
X382268Y405866D01*
X382245Y405977D01*
X382229Y406090D01*
X382217Y406116D01*
X382212Y406145D01*
X382160Y406246D01*
X382113Y406349D01*
X382094Y406371D01*
X382081Y406397D01*
X382003Y406479D01*
X381930Y406566D01*
X381905Y406582D01*
X381885Y406603D01*
X381787Y406661D01*
X381693Y406724D01*
X381665Y406732D01*
X381640Y406747D01*
X381530Y406775D01*
X381422Y406809D01*
X381392Y406810D01*
X381364Y406817D01*
X381251Y406814D01*
X381138Y406817D01*
X381109Y406809D01*
X381080Y406808D01*
X380972Y406773D01*
X380863Y406745D01*
X380837Y406730D01*
X380809Y406721D01*
X380746Y406675D01*
X380618Y406600D01*
X380575Y406554D01*
X380536Y406526D01*
X377362Y403351D01*
X356783Y403351D01*
X356781Y403351D01*
X356780Y403351D01*
X356640Y403331D01*
X356501Y403311D01*
X356500Y403311D01*
X356498Y403311D01*
X356372Y403254D01*
X356242Y403195D01*
X356241Y403194D01*
X356239Y403193D01*
X356132Y403102D01*
X356025Y403012D01*
X356024Y403010D01*
X356023Y403009D01*
X356015Y402996D01*
X355867Y402775D01*
X355858Y402746D01*
X355845Y402725D01*
X354507Y399493D01*
X351077Y396064D01*
X346595Y394207D01*
X341745Y394207D01*
X337263Y396064D01*
X333834Y399493D01*
X331977Y403975D01*
X331977Y408825D01*
X333834Y413307D01*
X337263Y416737D01*
X339225Y417549D01*
X339226Y417550D01*
X339227Y417550D01*
X339348Y417622D01*
X339469Y417693D01*
X339470Y417694D01*
X339472Y417695D01*
X339569Y417799D01*
X339665Y417900D01*
X339665Y417901D01*
X339666Y417903D01*
X339730Y418028D01*
X339795Y418153D01*
X339795Y418154D01*
X339796Y418156D01*
X339798Y418170D01*
X339850Y418432D01*
X339847Y418462D01*
X339851Y418487D01*
X339851Y424686D01*
X339851Y424687D01*
X339851Y424689D01*
X339831Y424830D01*
X339811Y424967D01*
X339811Y424969D01*
X339811Y424970D01*
X339752Y425100D01*
X339695Y425227D01*
X339694Y425228D01*
X339693Y425229D01*
X339600Y425338D01*
X339512Y425444D01*
X339510Y425444D01*
X339509Y425446D01*
X339496Y425454D01*
X339275Y425601D01*
X339246Y425610D01*
X339225Y425624D01*
X338871Y425770D01*
X336870Y427771D01*
X335787Y430385D01*
X335787Y433215D01*
X336870Y435829D01*
X338871Y437830D01*
X341485Y438913D01*
X344315Y438913D01*
X346929Y437830D01*
X348930Y435829D01*
X350013Y433215D01*
X350013Y430385D01*
X348930Y427771D01*
X346929Y425770D01*
X346575Y425624D01*
X346574Y425623D01*
X346573Y425622D01*
X346454Y425552D01*
X346331Y425479D01*
X346330Y425478D01*
X346328Y425477D01*
X346230Y425373D01*
X346135Y425272D01*
X346135Y425271D01*
X346134Y425270D01*
X346069Y425144D01*
X346005Y425020D01*
X346005Y425018D01*
X346004Y425017D01*
X346002Y425002D01*
X345950Y424741D01*
X345953Y424710D01*
X345949Y424686D01*
X345949Y419539D01*
X345949Y419537D01*
X345949Y419536D01*
X345969Y419396D01*
X345989Y419257D01*
X345989Y419256D01*
X345989Y419254D01*
X346048Y419124D01*
X346105Y418998D01*
X346106Y418997D01*
X346107Y418995D01*
X346198Y418888D01*
X346288Y418781D01*
X346290Y418780D01*
X346291Y418779D01*
X346304Y418771D01*
X346525Y418623D01*
X346554Y418614D01*
X346575Y418601D01*
X351077Y416737D01*
X354507Y413307D01*
X355845Y410075D01*
X355846Y410074D01*
X355846Y410073D01*
X355918Y409952D01*
X355989Y409831D01*
X355991Y409830D01*
X355991Y409828D01*
X356095Y409731D01*
X356196Y409635D01*
X356197Y409635D01*
X356199Y409634D01*
X356324Y409569D01*
X356449Y409505D01*
X356450Y409505D01*
X356452Y409504D01*
X356467Y409502D01*
X356728Y409450D01*
X356758Y409453D01*
X356783Y409449D01*
X374415Y409449D01*
X374502Y409461D01*
X374589Y409464D01*
X374642Y409481D01*
X374697Y409489D01*
X374777Y409524D01*
X374860Y409551D01*
X374899Y409579D01*
X374956Y409605D01*
X375070Y409701D01*
X375133Y409746D01*
X387282Y421895D01*
X450918Y421895D01*
X459356Y413457D01*
X459402Y413422D01*
X459443Y413380D01*
X459516Y413337D01*
X459583Y413286D01*
X459638Y413265D01*
X459688Y413236D01*
X459770Y413215D01*
X459849Y413185D01*
X459907Y413180D01*
X459964Y413166D01*
X460048Y413168D01*
X460132Y413161D01*
X460189Y413173D01*
X460248Y413175D01*
X460328Y413201D01*
X460411Y413217D01*
X460463Y413244D01*
X460518Y413262D01*
X460574Y413302D01*
X460663Y413348D01*
X460735Y413417D01*
X460792Y413457D01*
X463425Y416091D01*
X467626Y417831D01*
X472174Y417831D01*
X476375Y416090D01*
X479590Y412875D01*
X481331Y408674D01*
X481331Y404126D01*
X480171Y401327D01*
X480171Y401325D01*
X480170Y401324D01*
X480135Y401188D01*
X480100Y401051D01*
X480100Y401050D01*
X480100Y401048D01*
X480104Y400908D01*
X480108Y400767D01*
X480109Y400766D01*
X480109Y400764D01*
X480152Y400631D01*
X480195Y400497D01*
X480196Y400495D01*
X480196Y400494D01*
X480205Y400482D01*
X480353Y400260D01*
X480377Y400241D01*
X480391Y400220D01*
X488391Y392220D01*
X488461Y392168D01*
X488525Y392108D01*
X488575Y392082D01*
X488619Y392049D01*
X488700Y392018D01*
X488778Y391978D01*
X488826Y391970D01*
X488884Y391948D01*
X489032Y391936D01*
X489109Y391923D01*
X499338Y391923D01*
X516375Y374886D01*
X516376Y374885D01*
X516377Y374883D01*
X516490Y374798D01*
X516602Y374715D01*
X516603Y374714D01*
X516605Y374713D01*
X516737Y374663D01*
X516868Y374613D01*
X516869Y374613D01*
X516871Y374613D01*
X517015Y374601D01*
X517151Y374590D01*
X517152Y374590D01*
X517154Y374590D01*
X517170Y374594D01*
X517430Y374646D01*
X517457Y374660D01*
X517481Y374665D01*
X519285Y375413D01*
X522115Y375413D01*
X524729Y374330D01*
X526730Y372329D01*
X527813Y369715D01*
X527813Y366885D01*
X526730Y364271D01*
X524729Y362270D01*
X522115Y361187D01*
X519285Y361187D01*
X516671Y362270D01*
X514670Y364271D01*
X513587Y366885D01*
X513587Y368629D01*
X513575Y368716D01*
X513572Y368803D01*
X513555Y368856D01*
X513547Y368911D01*
X513512Y368991D01*
X513485Y369074D01*
X513457Y369113D01*
X513431Y369170D01*
X513335Y369283D01*
X513290Y369347D01*
X512528Y370109D01*
X512504Y370127D01*
X512485Y370149D01*
X512391Y370212D01*
X512301Y370280D01*
X512273Y370291D01*
X512249Y370307D01*
X512141Y370341D01*
X512035Y370381D01*
X512006Y370384D01*
X511978Y370393D01*
X511864Y370396D01*
X511752Y370405D01*
X511723Y370399D01*
X511694Y370400D01*
X511584Y370371D01*
X511473Y370349D01*
X511447Y370336D01*
X511419Y370328D01*
X511321Y370270D01*
X511221Y370218D01*
X511199Y370198D01*
X511174Y370183D01*
X511097Y370100D01*
X511015Y370022D01*
X511000Y369997D01*
X510980Y369976D01*
X510928Y369875D01*
X510871Y369777D01*
X510864Y369749D01*
X510850Y369722D01*
X510837Y369645D01*
X510801Y369502D01*
X510803Y369439D01*
X510795Y369391D01*
X510795Y239323D01*
X491080Y219608D01*
X491028Y219538D01*
X490968Y219474D01*
X490942Y219425D01*
X490909Y219381D01*
X490878Y219299D01*
X490838Y219221D01*
X490830Y219174D01*
X490808Y219115D01*
X490799Y219009D01*
X490797Y219001D01*
X490796Y218970D01*
X490796Y218968D01*
X490783Y218890D01*
X490783Y217058D01*
X490343Y216618D01*
X490308Y216571D01*
X490265Y216531D01*
X490222Y216458D01*
X490172Y216391D01*
X490151Y216336D01*
X490121Y216286D01*
X490100Y216204D01*
X490070Y216125D01*
X490066Y216067D01*
X490051Y216010D01*
X490054Y215926D01*
X490047Y215842D01*
X490058Y215784D01*
X490060Y215726D01*
X490086Y215646D01*
X490103Y215563D01*
X490130Y215511D01*
X490148Y215455D01*
X490188Y215399D01*
X490234Y215311D01*
X490302Y215238D01*
X490343Y215182D01*
X490783Y214742D01*
X490783Y209058D01*
X490343Y208618D01*
X490307Y208571D01*
X490265Y208531D01*
X490222Y208458D01*
X490172Y208391D01*
X490151Y208336D01*
X490121Y208286D01*
X490101Y208204D01*
X490070Y208125D01*
X490066Y208067D01*
X490051Y208010D01*
X490054Y207926D01*
X490047Y207842D01*
X490058Y207784D01*
X490060Y207726D01*
X490086Y207646D01*
X490103Y207563D01*
X490130Y207511D01*
X490148Y207455D01*
X490188Y207399D01*
X490234Y207311D01*
X490303Y207238D01*
X490343Y207182D01*
X490783Y206742D01*
X490783Y201058D01*
X490702Y200977D01*
X490667Y200930D01*
X490624Y200890D01*
X490582Y200817D01*
X490531Y200750D01*
X490510Y200695D01*
X490480Y200645D01*
X490460Y200563D01*
X490430Y200484D01*
X490425Y200426D01*
X490410Y200369D01*
X490413Y200285D01*
X490406Y200201D01*
X490418Y200144D01*
X490419Y200085D01*
X490445Y200005D01*
X490462Y199922D01*
X490489Y199870D01*
X490507Y199815D01*
X490547Y199758D01*
X490593Y199670D01*
X490662Y199598D01*
X490702Y199541D01*
X490783Y199460D01*
X491118Y198881D01*
X491291Y198234D01*
X491291Y196915D01*
X482400Y196915D01*
X482400Y196915D01*
G37*
%LPD*%
%LPC*%
G36*
X100489Y79417D02*
X100489Y79417D01*
X98917Y80989D01*
X98917Y432911D01*
X100489Y434483D01*
X102711Y434483D01*
X104283Y432911D01*
X104283Y105711D01*
X104300Y105591D01*
X104312Y105470D01*
X104320Y105450D01*
X104323Y105430D01*
X104372Y105318D01*
X104417Y105206D01*
X104430Y105189D01*
X104439Y105170D01*
X104517Y105077D01*
X104592Y104981D01*
X104609Y104969D01*
X104622Y104953D01*
X104724Y104886D01*
X104822Y104814D01*
X104842Y104807D01*
X104859Y104796D01*
X104975Y104759D01*
X105089Y104717D01*
X105108Y104717D01*
X105130Y104710D01*
X105414Y104702D01*
X105420Y104704D01*
X105425Y104704D01*
X126008Y107296D01*
X126031Y107302D01*
X126055Y107303D01*
X126168Y107339D01*
X126282Y107370D01*
X126303Y107383D01*
X126326Y107390D01*
X126388Y107435D01*
X126454Y107475D01*
X127368Y107475D01*
X127440Y107485D01*
X127495Y107483D01*
X128403Y107597D01*
X128491Y107547D01*
X128514Y107542D01*
X128536Y107531D01*
X128611Y107518D01*
X128687Y107500D01*
X129333Y106853D01*
X129391Y106810D01*
X129428Y106769D01*
X130151Y106208D01*
X130178Y106110D01*
X130191Y106090D01*
X130198Y106067D01*
X130243Y106004D01*
X130283Y105938D01*
X130283Y105298D01*
X130291Y105240D01*
X130289Y105182D01*
X130311Y105100D01*
X130323Y105016D01*
X130346Y104963D01*
X130361Y104907D01*
X130404Y104834D01*
X130439Y104757D01*
X130477Y104712D01*
X130506Y104662D01*
X130568Y104604D01*
X130622Y104540D01*
X130671Y104508D01*
X130714Y104468D01*
X130789Y104429D01*
X130859Y104382D01*
X130915Y104365D01*
X130967Y104338D01*
X131035Y104327D01*
X131130Y104297D01*
X131230Y104294D01*
X131298Y104283D01*
X630702Y104283D01*
X630760Y104291D01*
X630818Y104289D01*
X630900Y104311D01*
X630984Y104323D01*
X631037Y104346D01*
X631093Y104361D01*
X631166Y104404D01*
X631243Y104439D01*
X631288Y104477D01*
X631338Y104506D01*
X631396Y104568D01*
X631460Y104622D01*
X631492Y104671D01*
X631532Y104714D01*
X631571Y104789D01*
X631618Y104859D01*
X631635Y104915D01*
X631662Y104967D01*
X631673Y105035D01*
X631703Y105130D01*
X631706Y105230D01*
X631717Y105298D01*
X631717Y105940D01*
X631778Y106021D01*
X631787Y106043D01*
X631800Y106063D01*
X631822Y106137D01*
X631850Y106209D01*
X632572Y106769D01*
X632622Y106821D01*
X632667Y106853D01*
X633314Y107501D01*
X633415Y107515D01*
X633437Y107525D01*
X633460Y107529D01*
X633528Y107566D01*
X633598Y107597D01*
X634505Y107483D01*
X634578Y107484D01*
X634632Y107475D01*
X635547Y107475D01*
X635628Y107414D01*
X635651Y107406D01*
X635671Y107392D01*
X635744Y107370D01*
X635894Y107313D01*
X635950Y107308D01*
X635992Y107296D01*
X656575Y104704D01*
X656697Y104706D01*
X656818Y104702D01*
X656839Y104708D01*
X656859Y104708D01*
X656976Y104744D01*
X657093Y104774D01*
X657111Y104785D01*
X657131Y104791D01*
X657233Y104857D01*
X657338Y104920D01*
X657352Y104935D01*
X657370Y104946D01*
X657449Y105038D01*
X657532Y105127D01*
X657542Y105145D01*
X657555Y105161D01*
X657606Y105272D01*
X657662Y105380D01*
X657665Y105399D01*
X657674Y105419D01*
X657717Y105700D01*
X657716Y105706D01*
X657717Y105711D01*
X657717Y432911D01*
X659289Y434483D01*
X661511Y434483D01*
X663083Y432911D01*
X663083Y80989D01*
X661511Y79417D01*
X659289Y79417D01*
X657717Y80989D01*
X657717Y97489D01*
X657700Y97609D01*
X657688Y97730D01*
X657680Y97750D01*
X657677Y97770D01*
X657628Y97882D01*
X657583Y97994D01*
X657570Y98011D01*
X657561Y98030D01*
X657483Y98123D01*
X657408Y98219D01*
X657391Y98231D01*
X657378Y98247D01*
X657276Y98314D01*
X657178Y98386D01*
X657158Y98393D01*
X657141Y98404D01*
X657025Y98441D01*
X656911Y98483D01*
X656892Y98483D01*
X656870Y98490D01*
X656586Y98498D01*
X656580Y98496D01*
X656575Y98496D01*
X635992Y95904D01*
X635969Y95898D01*
X635945Y95897D01*
X635832Y95861D01*
X635718Y95830D01*
X635697Y95817D01*
X635674Y95810D01*
X635612Y95765D01*
X635546Y95725D01*
X634632Y95725D01*
X634560Y95715D01*
X634505Y95717D01*
X633597Y95603D01*
X633509Y95653D01*
X633486Y95658D01*
X633464Y95669D01*
X633389Y95682D01*
X633313Y95700D01*
X632667Y96347D01*
X632609Y96390D01*
X632572Y96431D01*
X631848Y96992D01*
X631822Y97090D01*
X631809Y97110D01*
X631802Y97133D01*
X631758Y97195D01*
X631717Y97262D01*
X631717Y97902D01*
X631709Y97960D01*
X631711Y98018D01*
X631689Y98100D01*
X631677Y98184D01*
X631654Y98237D01*
X631639Y98293D01*
X631596Y98366D01*
X631561Y98443D01*
X631523Y98488D01*
X631494Y98538D01*
X631432Y98596D01*
X631378Y98660D01*
X631329Y98692D01*
X631286Y98732D01*
X631211Y98771D01*
X631141Y98818D01*
X631085Y98835D01*
X631033Y98862D01*
X630965Y98873D01*
X630870Y98903D01*
X630770Y98906D01*
X630702Y98917D01*
X131298Y98917D01*
X131240Y98909D01*
X131182Y98911D01*
X131100Y98889D01*
X131016Y98877D01*
X130963Y98854D01*
X130907Y98839D01*
X130834Y98796D01*
X130757Y98761D01*
X130712Y98723D01*
X130662Y98694D01*
X130604Y98632D01*
X130540Y98578D01*
X130508Y98529D01*
X130468Y98486D01*
X130429Y98411D01*
X130382Y98341D01*
X130365Y98285D01*
X130338Y98233D01*
X130327Y98165D01*
X130297Y98070D01*
X130294Y97970D01*
X130283Y97902D01*
X130283Y97260D01*
X130222Y97179D01*
X130213Y97157D01*
X130200Y97137D01*
X130178Y97063D01*
X130150Y96991D01*
X129428Y96431D01*
X129378Y96379D01*
X129333Y96347D01*
X128686Y95699D01*
X128585Y95685D01*
X128563Y95675D01*
X128540Y95671D01*
X128472Y95634D01*
X128402Y95603D01*
X127495Y95717D01*
X127422Y95716D01*
X127368Y95725D01*
X126453Y95725D01*
X126372Y95786D01*
X126349Y95794D01*
X126329Y95808D01*
X126256Y95830D01*
X126106Y95887D01*
X126050Y95892D01*
X126008Y95904D01*
X105425Y98496D01*
X105303Y98494D01*
X105182Y98498D01*
X105161Y98492D01*
X105141Y98492D01*
X105024Y98456D01*
X104907Y98426D01*
X104889Y98415D01*
X104869Y98409D01*
X104767Y98343D01*
X104662Y98280D01*
X104648Y98265D01*
X104630Y98254D01*
X104551Y98162D01*
X104468Y98073D01*
X104458Y98055D01*
X104445Y98039D01*
X104394Y97928D01*
X104338Y97820D01*
X104335Y97801D01*
X104326Y97781D01*
X104283Y97500D01*
X104284Y97494D01*
X104283Y97489D01*
X104283Y80989D01*
X102711Y79417D01*
X100489Y79417D01*
G37*
%LPD*%
%LPC*%
G36*
X443085Y107187D02*
X443085Y107187D01*
X440471Y108270D01*
X438470Y110271D01*
X437387Y112885D01*
X437387Y115715D01*
X438470Y118329D01*
X439054Y118913D01*
X439106Y118983D01*
X439166Y119047D01*
X439192Y119096D01*
X439225Y119140D01*
X439256Y119222D01*
X439296Y119300D01*
X439304Y119347D01*
X439326Y119406D01*
X439338Y119553D01*
X439351Y119631D01*
X439351Y131176D01*
X439347Y131205D01*
X439350Y131234D01*
X439327Y131345D01*
X439311Y131457D01*
X439299Y131484D01*
X439294Y131513D01*
X439241Y131613D01*
X439195Y131716D01*
X439176Y131739D01*
X439163Y131765D01*
X439085Y131847D01*
X439012Y131933D01*
X438987Y131950D01*
X438967Y131971D01*
X438869Y132028D01*
X438775Y132091D01*
X438747Y132100D01*
X438722Y132115D01*
X438612Y132143D01*
X438504Y132177D01*
X438474Y132178D01*
X438446Y132185D01*
X438333Y132181D01*
X438220Y132184D01*
X438191Y132177D01*
X438162Y132176D01*
X438054Y132141D01*
X437945Y132112D01*
X437919Y132097D01*
X437891Y132088D01*
X437827Y132043D01*
X437700Y131967D01*
X437657Y131921D01*
X437618Y131893D01*
X437242Y131517D01*
X435512Y131517D01*
X435454Y131509D01*
X435396Y131511D01*
X435314Y131489D01*
X435230Y131477D01*
X435177Y131454D01*
X435121Y131439D01*
X435048Y131396D01*
X434971Y131361D01*
X434926Y131323D01*
X434876Y131294D01*
X434818Y131232D01*
X434754Y131178D01*
X434722Y131129D01*
X434682Y131086D01*
X434643Y131011D01*
X434596Y130941D01*
X434579Y130885D01*
X434552Y130833D01*
X434541Y130765D01*
X434511Y130670D01*
X434508Y130570D01*
X434497Y130502D01*
X434497Y118325D01*
X430925Y114753D01*
X236535Y114753D01*
X196680Y154609D01*
X196678Y154610D01*
X196677Y154611D01*
X196598Y154671D01*
X196580Y154688D01*
X196565Y154695D01*
X196562Y154698D01*
X196452Y154780D01*
X196451Y154780D01*
X196450Y154781D01*
X196318Y154831D01*
X196187Y154881D01*
X196185Y154881D01*
X196184Y154882D01*
X196039Y154893D01*
X195903Y154904D01*
X195902Y154904D01*
X195900Y154904D01*
X195885Y154901D01*
X195625Y154849D01*
X195598Y154835D01*
X195573Y154829D01*
X192774Y153669D01*
X188226Y153669D01*
X184025Y155410D01*
X180810Y158625D01*
X179069Y162826D01*
X179069Y167374D01*
X180810Y171575D01*
X184025Y174790D01*
X188226Y176531D01*
X192774Y176531D01*
X196975Y174790D01*
X200190Y171575D01*
X201931Y167374D01*
X201931Y162826D01*
X200771Y160027D01*
X200771Y160025D01*
X200770Y160024D01*
X200736Y159890D01*
X200700Y159751D01*
X200700Y159750D01*
X200700Y159748D01*
X200704Y159607D01*
X200708Y159467D01*
X200709Y159466D01*
X200709Y159464D01*
X200752Y159331D01*
X200795Y159197D01*
X200796Y159195D01*
X200796Y159194D01*
X200805Y159182D01*
X200953Y158960D01*
X200977Y158941D01*
X200991Y158920D01*
X238763Y121148D01*
X238833Y121096D01*
X238897Y121036D01*
X238947Y121010D01*
X238991Y120977D01*
X239072Y120946D01*
X239150Y120906D01*
X239198Y120898D01*
X239256Y120876D01*
X239404Y120864D01*
X239481Y120851D01*
X298439Y120851D01*
X298468Y120855D01*
X298498Y120852D01*
X298609Y120875D01*
X298721Y120891D01*
X298748Y120903D01*
X298776Y120908D01*
X298877Y120961D01*
X298980Y121007D01*
X299003Y121026D01*
X299029Y121039D01*
X299111Y121117D01*
X299197Y121190D01*
X299213Y121215D01*
X299235Y121235D01*
X299292Y121333D01*
X299355Y121427D01*
X299364Y121455D01*
X299379Y121480D01*
X299406Y121590D01*
X299441Y121698D01*
X299441Y121728D01*
X299449Y121756D01*
X299445Y121869D01*
X299448Y121982D01*
X299440Y122011D01*
X299440Y122040D01*
X299405Y122148D01*
X299376Y122257D01*
X299361Y122283D01*
X299352Y122311D01*
X299306Y122375D01*
X299231Y122502D01*
X299185Y122545D01*
X299157Y122584D01*
X298770Y122971D01*
X297687Y125585D01*
X297687Y128415D01*
X298770Y131029D01*
X300771Y133030D01*
X303385Y134113D01*
X306215Y134113D01*
X308829Y133030D01*
X310830Y131029D01*
X310976Y130675D01*
X310977Y130674D01*
X310978Y130673D01*
X311048Y130554D01*
X311121Y130431D01*
X311122Y130430D01*
X311123Y130428D01*
X311227Y130330D01*
X311328Y130235D01*
X311329Y130235D01*
X311330Y130234D01*
X311456Y130169D01*
X311580Y130105D01*
X311582Y130105D01*
X311583Y130104D01*
X311598Y130102D01*
X311859Y130050D01*
X311890Y130053D01*
X311914Y130049D01*
X331817Y130049D01*
X331903Y130061D01*
X331991Y130064D01*
X332043Y130081D01*
X332098Y130089D01*
X332178Y130124D01*
X332261Y130151D01*
X332300Y130179D01*
X332358Y130205D01*
X332471Y130301D01*
X332535Y130346D01*
X342070Y139881D01*
X342122Y139951D01*
X342182Y140015D01*
X342208Y140065D01*
X342241Y140109D01*
X342272Y140190D01*
X342312Y140268D01*
X342320Y140316D01*
X342342Y140374D01*
X342351Y140484D01*
X342353Y140491D01*
X342354Y140518D01*
X342354Y140522D01*
X342367Y140599D01*
X342367Y147092D01*
X343558Y148283D01*
X349242Y148283D01*
X349682Y147843D01*
X349729Y147808D01*
X349769Y147765D01*
X349842Y147722D01*
X349909Y147672D01*
X349964Y147651D01*
X350014Y147621D01*
X350096Y147600D01*
X350175Y147570D01*
X350233Y147566D01*
X350290Y147551D01*
X350374Y147554D01*
X350458Y147547D01*
X350516Y147558D01*
X350574Y147560D01*
X350654Y147586D01*
X350737Y147603D01*
X350789Y147630D01*
X350845Y147648D01*
X350901Y147688D01*
X350989Y147734D01*
X351062Y147802D01*
X351118Y147843D01*
X351558Y148283D01*
X357242Y148283D01*
X357682Y147843D01*
X357729Y147808D01*
X357769Y147765D01*
X357842Y147722D01*
X357909Y147672D01*
X357964Y147651D01*
X358014Y147621D01*
X358096Y147600D01*
X358175Y147570D01*
X358233Y147566D01*
X358290Y147551D01*
X358374Y147554D01*
X358458Y147547D01*
X358516Y147558D01*
X358574Y147560D01*
X358654Y147586D01*
X358737Y147603D01*
X358789Y147630D01*
X358845Y147648D01*
X358901Y147688D01*
X358989Y147734D01*
X359062Y147802D01*
X359118Y147843D01*
X359558Y148283D01*
X365242Y148283D01*
X365682Y147843D01*
X365729Y147808D01*
X365769Y147765D01*
X365842Y147722D01*
X365909Y147672D01*
X365964Y147651D01*
X366014Y147621D01*
X366096Y147600D01*
X366175Y147570D01*
X366233Y147566D01*
X366290Y147551D01*
X366374Y147554D01*
X366458Y147547D01*
X366516Y147558D01*
X366574Y147560D01*
X366654Y147586D01*
X366737Y147603D01*
X366789Y147630D01*
X366845Y147648D01*
X366901Y147688D01*
X366989Y147734D01*
X367062Y147802D01*
X367118Y147843D01*
X367558Y148283D01*
X373242Y148283D01*
X373682Y147843D01*
X373729Y147808D01*
X373769Y147765D01*
X373842Y147722D01*
X373909Y147672D01*
X373964Y147651D01*
X374014Y147621D01*
X374096Y147600D01*
X374175Y147570D01*
X374233Y147566D01*
X374290Y147551D01*
X374374Y147554D01*
X374458Y147547D01*
X374516Y147558D01*
X374574Y147560D01*
X374654Y147586D01*
X374737Y147603D01*
X374789Y147630D01*
X374845Y147648D01*
X374901Y147688D01*
X374989Y147734D01*
X375062Y147802D01*
X375118Y147843D01*
X375558Y148283D01*
X381242Y148283D01*
X381682Y147843D01*
X381729Y147808D01*
X381769Y147765D01*
X381842Y147722D01*
X381909Y147672D01*
X381964Y147651D01*
X382014Y147621D01*
X382096Y147600D01*
X382175Y147570D01*
X382233Y147566D01*
X382290Y147551D01*
X382374Y147554D01*
X382458Y147547D01*
X382516Y147558D01*
X382574Y147560D01*
X382654Y147586D01*
X382737Y147603D01*
X382789Y147630D01*
X382845Y147648D01*
X382901Y147688D01*
X382989Y147734D01*
X383062Y147802D01*
X383118Y147843D01*
X383558Y148283D01*
X389242Y148283D01*
X389682Y147843D01*
X389729Y147808D01*
X389769Y147765D01*
X389842Y147722D01*
X389909Y147672D01*
X389964Y147651D01*
X390014Y147621D01*
X390096Y147600D01*
X390175Y147570D01*
X390233Y147566D01*
X390290Y147551D01*
X390374Y147554D01*
X390458Y147547D01*
X390516Y147558D01*
X390574Y147560D01*
X390654Y147586D01*
X390737Y147603D01*
X390789Y147630D01*
X390845Y147648D01*
X390901Y147688D01*
X390989Y147734D01*
X391062Y147802D01*
X391118Y147843D01*
X391558Y148283D01*
X397242Y148283D01*
X397682Y147843D01*
X397729Y147808D01*
X397769Y147765D01*
X397842Y147722D01*
X397909Y147672D01*
X397964Y147651D01*
X398014Y147621D01*
X398096Y147600D01*
X398175Y147570D01*
X398233Y147566D01*
X398290Y147551D01*
X398374Y147554D01*
X398458Y147547D01*
X398516Y147558D01*
X398574Y147560D01*
X398654Y147586D01*
X398737Y147603D01*
X398789Y147630D01*
X398845Y147648D01*
X398901Y147688D01*
X398989Y147734D01*
X399062Y147802D01*
X399118Y147843D01*
X399558Y148283D01*
X405242Y148283D01*
X405682Y147843D01*
X405729Y147807D01*
X405769Y147765D01*
X405842Y147722D01*
X405909Y147672D01*
X405964Y147651D01*
X406014Y147621D01*
X406096Y147601D01*
X406175Y147570D01*
X406233Y147566D01*
X406290Y147551D01*
X406374Y147554D01*
X406458Y147547D01*
X406516Y147558D01*
X406574Y147560D01*
X406654Y147586D01*
X406737Y147603D01*
X406789Y147630D01*
X406845Y147648D01*
X406901Y147688D01*
X406989Y147734D01*
X407062Y147803D01*
X407118Y147843D01*
X407558Y148283D01*
X413242Y148283D01*
X413682Y147843D01*
X413729Y147807D01*
X413769Y147765D01*
X413842Y147722D01*
X413909Y147672D01*
X413964Y147651D01*
X414014Y147621D01*
X414096Y147601D01*
X414175Y147570D01*
X414233Y147566D01*
X414290Y147551D01*
X414374Y147554D01*
X414458Y147547D01*
X414516Y147558D01*
X414574Y147560D01*
X414654Y147586D01*
X414737Y147603D01*
X414789Y147630D01*
X414845Y147648D01*
X414901Y147688D01*
X414989Y147734D01*
X415062Y147803D01*
X415118Y147843D01*
X415558Y148283D01*
X421242Y148283D01*
X421682Y147843D01*
X421729Y147807D01*
X421769Y147765D01*
X421842Y147722D01*
X421909Y147672D01*
X421964Y147651D01*
X422014Y147621D01*
X422096Y147601D01*
X422175Y147570D01*
X422233Y147566D01*
X422290Y147551D01*
X422374Y147554D01*
X422458Y147547D01*
X422516Y147558D01*
X422574Y147560D01*
X422654Y147586D01*
X422737Y147603D01*
X422789Y147630D01*
X422845Y147648D01*
X422901Y147688D01*
X422989Y147734D01*
X423062Y147803D01*
X423118Y147843D01*
X423558Y148283D01*
X429242Y148283D01*
X429682Y147843D01*
X429729Y147807D01*
X429769Y147765D01*
X429842Y147722D01*
X429909Y147672D01*
X429964Y147651D01*
X430014Y147621D01*
X430096Y147601D01*
X430175Y147570D01*
X430233Y147566D01*
X430290Y147551D01*
X430374Y147554D01*
X430458Y147547D01*
X430516Y147558D01*
X430574Y147560D01*
X430654Y147586D01*
X430737Y147603D01*
X430789Y147630D01*
X430845Y147648D01*
X430901Y147688D01*
X430989Y147734D01*
X431062Y147803D01*
X431118Y147843D01*
X431558Y148283D01*
X437242Y148283D01*
X437682Y147843D01*
X437729Y147807D01*
X437769Y147765D01*
X437842Y147722D01*
X437909Y147672D01*
X437964Y147651D01*
X438014Y147621D01*
X438096Y147601D01*
X438175Y147570D01*
X438233Y147566D01*
X438290Y147551D01*
X438374Y147554D01*
X438458Y147547D01*
X438516Y147558D01*
X438574Y147560D01*
X438654Y147586D01*
X438737Y147603D01*
X438789Y147630D01*
X438845Y147648D01*
X438901Y147688D01*
X438989Y147734D01*
X439062Y147803D01*
X439118Y147843D01*
X439558Y148283D01*
X445242Y148283D01*
X445682Y147843D01*
X445729Y147807D01*
X445769Y147765D01*
X445842Y147722D01*
X445909Y147672D01*
X445964Y147651D01*
X446014Y147621D01*
X446096Y147601D01*
X446175Y147570D01*
X446233Y147566D01*
X446290Y147551D01*
X446374Y147554D01*
X446458Y147547D01*
X446516Y147558D01*
X446574Y147560D01*
X446654Y147586D01*
X446737Y147603D01*
X446789Y147630D01*
X446845Y147648D01*
X446901Y147688D01*
X446989Y147734D01*
X447062Y147803D01*
X447118Y147843D01*
X447558Y148283D01*
X453242Y148283D01*
X453682Y147843D01*
X453729Y147807D01*
X453769Y147765D01*
X453842Y147722D01*
X453909Y147672D01*
X453964Y147651D01*
X454014Y147621D01*
X454096Y147601D01*
X454175Y147570D01*
X454233Y147566D01*
X454290Y147551D01*
X454374Y147554D01*
X454458Y147547D01*
X454516Y147558D01*
X454574Y147560D01*
X454654Y147586D01*
X454737Y147603D01*
X454789Y147630D01*
X454845Y147648D01*
X454901Y147688D01*
X454989Y147734D01*
X455062Y147803D01*
X455118Y147843D01*
X455558Y148283D01*
X461242Y148283D01*
X461682Y147843D01*
X461729Y147807D01*
X461769Y147765D01*
X461842Y147722D01*
X461909Y147672D01*
X461964Y147651D01*
X462014Y147621D01*
X462096Y147601D01*
X462175Y147570D01*
X462233Y147566D01*
X462290Y147551D01*
X462374Y147554D01*
X462458Y147547D01*
X462516Y147558D01*
X462574Y147560D01*
X462654Y147586D01*
X462737Y147603D01*
X462789Y147630D01*
X462845Y147648D01*
X462901Y147688D01*
X462989Y147734D01*
X463062Y147803D01*
X463118Y147843D01*
X463558Y148283D01*
X469242Y148283D01*
X470433Y147092D01*
X470433Y132708D01*
X469242Y131517D01*
X463558Y131517D01*
X463118Y131957D01*
X463071Y131992D01*
X463031Y132035D01*
X462958Y132078D01*
X462891Y132128D01*
X462836Y132149D01*
X462786Y132179D01*
X462704Y132200D01*
X462625Y132230D01*
X462567Y132234D01*
X462510Y132249D01*
X462426Y132246D01*
X462342Y132253D01*
X462284Y132242D01*
X462226Y132240D01*
X462146Y132214D01*
X462063Y132197D01*
X462011Y132170D01*
X461955Y132152D01*
X461899Y132112D01*
X461811Y132066D01*
X461738Y131998D01*
X461682Y131957D01*
X461242Y131517D01*
X455558Y131517D01*
X455118Y131957D01*
X455071Y131992D01*
X455031Y132035D01*
X454958Y132078D01*
X454891Y132128D01*
X454836Y132149D01*
X454786Y132179D01*
X454704Y132200D01*
X454625Y132230D01*
X454567Y132234D01*
X454510Y132249D01*
X454426Y132246D01*
X454342Y132253D01*
X454284Y132242D01*
X454226Y132240D01*
X454146Y132214D01*
X454063Y132197D01*
X454011Y132170D01*
X453955Y132152D01*
X453899Y132112D01*
X453811Y132066D01*
X453738Y131998D01*
X453682Y131957D01*
X453242Y131517D01*
X447558Y131517D01*
X447182Y131893D01*
X447158Y131911D01*
X447139Y131933D01*
X447045Y131996D01*
X446955Y132064D01*
X446927Y132075D01*
X446903Y132091D01*
X446795Y132125D01*
X446689Y132166D01*
X446660Y132168D01*
X446632Y132177D01*
X446518Y132180D01*
X446406Y132189D01*
X446377Y132183D01*
X446348Y132184D01*
X446238Y132155D01*
X446127Y132133D01*
X446101Y132120D01*
X446073Y132112D01*
X445975Y132055D01*
X445875Y132002D01*
X445853Y131982D01*
X445828Y131967D01*
X445751Y131884D01*
X445669Y131806D01*
X445654Y131781D01*
X445634Y131760D01*
X445582Y131659D01*
X445525Y131561D01*
X445518Y131533D01*
X445504Y131507D01*
X445491Y131429D01*
X445455Y131286D01*
X445457Y131223D01*
X445449Y131176D01*
X445449Y122284D01*
X445449Y122283D01*
X445449Y122281D01*
X445469Y122142D01*
X445489Y122003D01*
X445489Y122001D01*
X445489Y122000D01*
X445546Y121874D01*
X445605Y121743D01*
X445606Y121742D01*
X445607Y121741D01*
X445698Y121633D01*
X445788Y121526D01*
X445790Y121525D01*
X445791Y121524D01*
X445804Y121516D01*
X446025Y121369D01*
X446054Y121359D01*
X446075Y121346D01*
X448529Y120330D01*
X450530Y118329D01*
X451613Y115715D01*
X451613Y112885D01*
X450530Y110271D01*
X448529Y108270D01*
X445915Y107187D01*
X443085Y107187D01*
G37*
%LPD*%
%LPC*%
G36*
X323208Y151867D02*
X323208Y151867D01*
X322017Y153058D01*
X322017Y154890D01*
X322009Y154945D01*
X322011Y154989D01*
X322004Y155015D01*
X322002Y155064D01*
X321985Y155117D01*
X321977Y155172D01*
X321943Y155250D01*
X321939Y155264D01*
X321936Y155268D01*
X321915Y155335D01*
X321887Y155374D01*
X321861Y155431D01*
X321765Y155544D01*
X321720Y155608D01*
X315574Y161754D01*
X315504Y161806D01*
X315440Y161866D01*
X315391Y161892D01*
X315347Y161925D01*
X315265Y161956D01*
X315187Y161996D01*
X315140Y162004D01*
X315081Y162026D01*
X314933Y162038D01*
X314856Y162051D01*
X227688Y162051D01*
X227687Y162051D01*
X227685Y162051D01*
X227545Y162031D01*
X227407Y162011D01*
X227405Y162011D01*
X227404Y162011D01*
X227278Y161954D01*
X227147Y161895D01*
X227146Y161894D01*
X227145Y161893D01*
X227037Y161802D01*
X226930Y161712D01*
X226929Y161710D01*
X226928Y161709D01*
X226920Y161696D01*
X226773Y161475D01*
X226763Y161446D01*
X226750Y161425D01*
X225590Y158625D01*
X222375Y155410D01*
X218174Y153669D01*
X213626Y153669D01*
X209425Y155410D01*
X206210Y158625D01*
X204469Y162826D01*
X204469Y167374D01*
X206210Y171575D01*
X209425Y174790D01*
X213626Y176531D01*
X218174Y176531D01*
X222375Y174790D01*
X225590Y171575D01*
X226750Y168775D01*
X226751Y168774D01*
X226751Y168773D01*
X226822Y168654D01*
X226895Y168531D01*
X226896Y168530D01*
X226897Y168528D01*
X227000Y168431D01*
X227101Y168335D01*
X227103Y168335D01*
X227104Y168334D01*
X227230Y168269D01*
X227354Y168205D01*
X227356Y168205D01*
X227357Y168204D01*
X227372Y168202D01*
X227633Y168150D01*
X227663Y168153D01*
X227688Y168149D01*
X312874Y168149D01*
X312932Y168157D01*
X312990Y168155D01*
X313072Y168177D01*
X313156Y168189D01*
X313209Y168212D01*
X313265Y168227D01*
X313338Y168270D01*
X313415Y168305D01*
X313460Y168343D01*
X313510Y168372D01*
X313568Y168434D01*
X313632Y168488D01*
X313664Y168537D01*
X313704Y168580D01*
X313743Y168655D01*
X313790Y168725D01*
X313807Y168781D01*
X313834Y168833D01*
X313845Y168901D01*
X313875Y168996D01*
X313878Y169096D01*
X313889Y169164D01*
X313889Y221486D01*
X313889Y221487D01*
X313889Y221489D01*
X313869Y221628D01*
X313849Y221767D01*
X313849Y221769D01*
X313849Y221770D01*
X313790Y221900D01*
X313733Y222027D01*
X313732Y222028D01*
X313732Y222029D01*
X313638Y222139D01*
X313550Y222244D01*
X313548Y222244D01*
X313547Y222246D01*
X313534Y222254D01*
X313313Y222401D01*
X313284Y222410D01*
X313263Y222424D01*
X312909Y222570D01*
X310908Y224571D01*
X309825Y227185D01*
X309825Y230015D01*
X310908Y232629D01*
X312909Y234630D01*
X315523Y235713D01*
X318353Y235713D01*
X320613Y234776D01*
X320725Y234748D01*
X320834Y234713D01*
X320862Y234712D01*
X320889Y234705D01*
X321003Y234709D01*
X321118Y234706D01*
X321145Y234713D01*
X321173Y234714D01*
X321282Y234749D01*
X321393Y234778D01*
X321417Y234792D01*
X321444Y234800D01*
X321539Y234864D01*
X321638Y234923D01*
X321657Y234943D01*
X321680Y234958D01*
X321754Y235046D01*
X321832Y235130D01*
X321845Y235155D01*
X321863Y235176D01*
X321909Y235281D01*
X321962Y235383D01*
X321966Y235408D01*
X321978Y235436D01*
X322015Y235700D01*
X322017Y235714D01*
X322017Y238742D01*
X322098Y238823D01*
X322133Y238870D01*
X322176Y238910D01*
X322218Y238983D01*
X322269Y239050D01*
X322290Y239105D01*
X322320Y239155D01*
X322340Y239237D01*
X322370Y239316D01*
X322375Y239374D01*
X322390Y239431D01*
X322387Y239515D01*
X322394Y239599D01*
X322382Y239656D01*
X322381Y239715D01*
X322355Y239795D01*
X322338Y239878D01*
X322311Y239930D01*
X322293Y239985D01*
X322253Y240042D01*
X322207Y240130D01*
X322138Y240202D01*
X322098Y240259D01*
X322017Y240340D01*
X321682Y240919D01*
X321509Y241566D01*
X321509Y242885D01*
X330400Y242885D01*
X339291Y242885D01*
X339291Y241566D01*
X339118Y240919D01*
X338783Y240340D01*
X338702Y240259D01*
X338667Y240212D01*
X338624Y240172D01*
X338582Y240099D01*
X338531Y240032D01*
X338510Y239977D01*
X338480Y239926D01*
X338460Y239845D01*
X338430Y239766D01*
X338425Y239708D01*
X338410Y239651D01*
X338413Y239567D01*
X338406Y239483D01*
X338418Y239425D01*
X338419Y239367D01*
X338445Y239287D01*
X338462Y239204D01*
X338489Y239152D01*
X338507Y239096D01*
X338547Y239040D01*
X338593Y238952D01*
X338662Y238879D01*
X338702Y238823D01*
X338783Y238742D01*
X338783Y233058D01*
X338343Y232618D01*
X338308Y232571D01*
X338265Y232531D01*
X338222Y232458D01*
X338172Y232391D01*
X338151Y232336D01*
X338121Y232286D01*
X338100Y232204D01*
X338070Y232125D01*
X338066Y232067D01*
X338051Y232010D01*
X338054Y231926D01*
X338047Y231842D01*
X338058Y231784D01*
X338060Y231726D01*
X338086Y231646D01*
X338103Y231563D01*
X338130Y231511D01*
X338148Y231455D01*
X338188Y231399D01*
X338234Y231311D01*
X338302Y231238D01*
X338343Y231182D01*
X338783Y230742D01*
X338783Y225058D01*
X338343Y224618D01*
X338328Y224599D01*
X338312Y224585D01*
X338295Y224559D01*
X338265Y224531D01*
X338222Y224458D01*
X338172Y224391D01*
X338157Y224352D01*
X338155Y224348D01*
X338150Y224335D01*
X338121Y224286D01*
X338100Y224204D01*
X338070Y224125D01*
X338066Y224067D01*
X338051Y224010D01*
X338054Y223926D01*
X338047Y223842D01*
X338058Y223784D01*
X338060Y223726D01*
X338086Y223646D01*
X338103Y223563D01*
X338130Y223511D01*
X338148Y223455D01*
X338188Y223399D01*
X338234Y223311D01*
X338302Y223238D01*
X338343Y223182D01*
X338783Y222742D01*
X338783Y217058D01*
X338343Y216618D01*
X338307Y216571D01*
X338265Y216531D01*
X338222Y216458D01*
X338172Y216391D01*
X338151Y216336D01*
X338121Y216286D01*
X338101Y216204D01*
X338070Y216125D01*
X338066Y216067D01*
X338051Y216010D01*
X338054Y215926D01*
X338047Y215842D01*
X338058Y215784D01*
X338060Y215726D01*
X338086Y215646D01*
X338103Y215563D01*
X338130Y215511D01*
X338148Y215455D01*
X338188Y215399D01*
X338234Y215311D01*
X338303Y215238D01*
X338343Y215182D01*
X338783Y214742D01*
X338783Y209058D01*
X338343Y208618D01*
X338307Y208571D01*
X338265Y208531D01*
X338222Y208458D01*
X338172Y208391D01*
X338151Y208336D01*
X338121Y208286D01*
X338101Y208204D01*
X338070Y208125D01*
X338066Y208067D01*
X338051Y208010D01*
X338054Y207926D01*
X338047Y207842D01*
X338058Y207784D01*
X338060Y207726D01*
X338086Y207646D01*
X338103Y207563D01*
X338130Y207511D01*
X338148Y207455D01*
X338188Y207399D01*
X338234Y207311D01*
X338303Y207238D01*
X338343Y207182D01*
X338783Y206742D01*
X338783Y201058D01*
X338343Y200618D01*
X338307Y200571D01*
X338265Y200531D01*
X338222Y200458D01*
X338172Y200391D01*
X338151Y200336D01*
X338121Y200286D01*
X338101Y200204D01*
X338070Y200125D01*
X338066Y200067D01*
X338051Y200010D01*
X338054Y199926D01*
X338047Y199842D01*
X338058Y199784D01*
X338060Y199726D01*
X338086Y199646D01*
X338103Y199563D01*
X338130Y199511D01*
X338148Y199455D01*
X338188Y199399D01*
X338234Y199311D01*
X338303Y199238D01*
X338343Y199182D01*
X338783Y198742D01*
X338783Y193058D01*
X338343Y192618D01*
X338307Y192571D01*
X338265Y192531D01*
X338222Y192458D01*
X338172Y192391D01*
X338151Y192336D01*
X338121Y192286D01*
X338101Y192204D01*
X338070Y192125D01*
X338066Y192067D01*
X338051Y192010D01*
X338054Y191926D01*
X338047Y191842D01*
X338058Y191784D01*
X338060Y191726D01*
X338086Y191646D01*
X338103Y191563D01*
X338130Y191511D01*
X338148Y191455D01*
X338188Y191399D01*
X338234Y191311D01*
X338303Y191238D01*
X338343Y191182D01*
X338783Y190742D01*
X338783Y185058D01*
X338343Y184618D01*
X338308Y184571D01*
X338265Y184531D01*
X338222Y184458D01*
X338172Y184391D01*
X338151Y184336D01*
X338121Y184286D01*
X338100Y184204D01*
X338070Y184125D01*
X338066Y184067D01*
X338051Y184010D01*
X338054Y183926D01*
X338047Y183842D01*
X338058Y183784D01*
X338060Y183726D01*
X338086Y183646D01*
X338103Y183563D01*
X338130Y183511D01*
X338148Y183455D01*
X338188Y183399D01*
X338234Y183311D01*
X338302Y183238D01*
X338343Y183182D01*
X338783Y182742D01*
X338783Y177058D01*
X338343Y176618D01*
X338307Y176571D01*
X338265Y176531D01*
X338222Y176458D01*
X338172Y176391D01*
X338151Y176336D01*
X338121Y176286D01*
X338101Y176204D01*
X338070Y176125D01*
X338066Y176067D01*
X338051Y176010D01*
X338054Y175926D01*
X338047Y175842D01*
X338058Y175784D01*
X338060Y175726D01*
X338086Y175646D01*
X338103Y175563D01*
X338130Y175511D01*
X338148Y175455D01*
X338188Y175399D01*
X338234Y175311D01*
X338303Y175238D01*
X338343Y175182D01*
X338783Y174742D01*
X338783Y169058D01*
X338343Y168618D01*
X338307Y168571D01*
X338265Y168531D01*
X338222Y168458D01*
X338172Y168391D01*
X338151Y168336D01*
X338121Y168286D01*
X338101Y168204D01*
X338070Y168125D01*
X338066Y168067D01*
X338051Y168010D01*
X338054Y167926D01*
X338047Y167842D01*
X338058Y167784D01*
X338060Y167726D01*
X338086Y167646D01*
X338103Y167563D01*
X338130Y167511D01*
X338148Y167455D01*
X338188Y167399D01*
X338234Y167311D01*
X338303Y167238D01*
X338343Y167182D01*
X338783Y166742D01*
X338783Y161058D01*
X338343Y160618D01*
X338307Y160571D01*
X338265Y160531D01*
X338222Y160458D01*
X338172Y160391D01*
X338151Y160336D01*
X338121Y160286D01*
X338101Y160204D01*
X338070Y160125D01*
X338066Y160067D01*
X338051Y160010D01*
X338054Y159926D01*
X338047Y159842D01*
X338058Y159784D01*
X338060Y159726D01*
X338086Y159646D01*
X338103Y159563D01*
X338130Y159511D01*
X338148Y159455D01*
X338188Y159399D01*
X338234Y159311D01*
X338303Y159238D01*
X338343Y159182D01*
X338783Y158742D01*
X338783Y153058D01*
X337592Y151867D01*
X323208Y151867D01*
G37*
%LPD*%
%LPC*%
G36*
X579501Y240377D02*
X579501Y240377D01*
X570819Y243974D01*
X564174Y250619D01*
X560577Y259301D01*
X560577Y268699D01*
X564174Y277381D01*
X570819Y284026D01*
X579501Y287623D01*
X588899Y287623D01*
X596695Y284393D01*
X596697Y284393D01*
X596698Y284392D01*
X596833Y284358D01*
X596971Y284322D01*
X596972Y284322D01*
X596974Y284322D01*
X597114Y284326D01*
X597255Y284331D01*
X597256Y284331D01*
X597258Y284331D01*
X597391Y284374D01*
X597526Y284417D01*
X597527Y284418D01*
X597528Y284419D01*
X597540Y284427D01*
X597762Y284575D01*
X597782Y284599D01*
X597802Y284613D01*
X624509Y311320D01*
X624510Y311322D01*
X624511Y311323D01*
X624598Y311438D01*
X624680Y311548D01*
X624680Y311549D01*
X624681Y311550D01*
X624731Y311681D01*
X624781Y311813D01*
X624781Y311815D01*
X624782Y311816D01*
X624793Y311961D01*
X624804Y312097D01*
X624804Y312098D01*
X624804Y312100D01*
X624801Y312115D01*
X624749Y312375D01*
X624735Y312402D01*
X624729Y312427D01*
X623569Y315226D01*
X623569Y319774D01*
X625310Y323975D01*
X628525Y327190D01*
X632726Y328931D01*
X637274Y328931D01*
X641475Y327190D01*
X644690Y323975D01*
X646431Y319774D01*
X646431Y315226D01*
X644690Y311025D01*
X641475Y307810D01*
X637274Y306069D01*
X632726Y306069D01*
X629927Y307229D01*
X629925Y307229D01*
X629924Y307230D01*
X629790Y307264D01*
X629651Y307300D01*
X629650Y307300D01*
X629648Y307300D01*
X629508Y307296D01*
X629367Y307292D01*
X629366Y307291D01*
X629364Y307291D01*
X629231Y307248D01*
X629097Y307205D01*
X629095Y307204D01*
X629094Y307204D01*
X629082Y307195D01*
X628860Y307047D01*
X628841Y307023D01*
X628820Y307009D01*
X602427Y280616D01*
X602392Y280569D01*
X602350Y280529D01*
X602307Y280456D01*
X602257Y280389D01*
X602236Y280334D01*
X602206Y280284D01*
X602185Y280202D01*
X602155Y280123D01*
X602150Y280065D01*
X602136Y280008D01*
X602139Y279924D01*
X602132Y279840D01*
X602143Y279782D01*
X602145Y279724D01*
X602171Y279644D01*
X602188Y279561D01*
X602215Y279509D01*
X602233Y279453D01*
X602273Y279397D01*
X602319Y279309D01*
X602387Y279236D01*
X602427Y279180D01*
X604226Y277381D01*
X607823Y268699D01*
X607823Y259301D01*
X604226Y250619D01*
X597581Y243974D01*
X588899Y240377D01*
X579501Y240377D01*
G37*
%LPD*%
%LPC*%
G36*
X556526Y306069D02*
X556526Y306069D01*
X552325Y307810D01*
X549110Y311025D01*
X547369Y315226D01*
X547369Y319774D01*
X549110Y323975D01*
X552325Y327190D01*
X555125Y328350D01*
X555126Y328351D01*
X555127Y328351D01*
X555246Y328422D01*
X555369Y328495D01*
X555370Y328496D01*
X555372Y328497D01*
X555469Y328600D01*
X555565Y328701D01*
X555565Y328703D01*
X555566Y328704D01*
X555631Y328830D01*
X555695Y328954D01*
X555695Y328956D01*
X555696Y328957D01*
X555698Y328972D01*
X555750Y329233D01*
X555747Y329263D01*
X555751Y329288D01*
X555751Y367117D01*
X555751Y367119D01*
X555751Y367120D01*
X555744Y367168D01*
X555745Y367176D01*
X555741Y367188D01*
X555731Y367260D01*
X555711Y367399D01*
X555711Y367400D01*
X555711Y367402D01*
X555654Y367528D01*
X555595Y367658D01*
X555594Y367659D01*
X555593Y367661D01*
X555502Y367768D01*
X555412Y367875D01*
X555410Y367876D01*
X555409Y367877D01*
X555396Y367885D01*
X555175Y368033D01*
X555146Y368042D01*
X555125Y368055D01*
X551893Y369393D01*
X548464Y372823D01*
X546607Y377305D01*
X546607Y382155D01*
X548464Y386637D01*
X551893Y390066D01*
X556375Y391923D01*
X561225Y391923D01*
X565707Y390066D01*
X569136Y386637D01*
X570993Y382155D01*
X570993Y377305D01*
X569136Y372823D01*
X565707Y369393D01*
X562475Y368055D01*
X562474Y368054D01*
X562473Y368054D01*
X562352Y367982D01*
X562231Y367911D01*
X562230Y367909D01*
X562228Y367909D01*
X562129Y367803D01*
X562035Y367704D01*
X562035Y367703D01*
X562034Y367701D01*
X561969Y367575D01*
X561905Y367451D01*
X561905Y367450D01*
X561904Y367448D01*
X561902Y367433D01*
X561850Y367172D01*
X561853Y367142D01*
X561849Y367117D01*
X561849Y329288D01*
X561849Y329287D01*
X561849Y329285D01*
X561869Y329145D01*
X561889Y329007D01*
X561889Y329005D01*
X561889Y329004D01*
X561946Y328878D01*
X562005Y328747D01*
X562006Y328746D01*
X562007Y328745D01*
X562099Y328636D01*
X562188Y328530D01*
X562190Y328529D01*
X562191Y328528D01*
X562204Y328520D01*
X562425Y328373D01*
X562454Y328363D01*
X562475Y328350D01*
X565275Y327190D01*
X568490Y323975D01*
X570231Y319774D01*
X570231Y315226D01*
X568490Y311025D01*
X565275Y307810D01*
X561074Y306069D01*
X556526Y306069D01*
G37*
%LPD*%
%LPC*%
G36*
X213626Y293369D02*
X213626Y293369D01*
X209425Y295110D01*
X206210Y298325D01*
X204469Y302526D01*
X204469Y307074D01*
X206210Y311275D01*
X209425Y314490D01*
X213626Y316231D01*
X218174Y316231D01*
X220973Y315071D01*
X220975Y315071D01*
X220976Y315070D01*
X221110Y315036D01*
X221249Y315000D01*
X221250Y315000D01*
X221252Y315000D01*
X221392Y315004D01*
X221533Y315008D01*
X221534Y315009D01*
X221536Y315009D01*
X221669Y315052D01*
X221803Y315095D01*
X221805Y315096D01*
X221806Y315096D01*
X221818Y315105D01*
X222040Y315253D01*
X222059Y315277D01*
X222080Y315291D01*
X237954Y331165D01*
X237954Y331166D01*
X240037Y333249D01*
X254912Y333249D01*
X254913Y333249D01*
X254915Y333249D01*
X255055Y333269D01*
X255193Y333289D01*
X255195Y333289D01*
X255196Y333289D01*
X255322Y333346D01*
X255453Y333405D01*
X255454Y333406D01*
X255455Y333407D01*
X255563Y333498D01*
X255670Y333588D01*
X255671Y333590D01*
X255672Y333591D01*
X255680Y333604D01*
X255827Y333825D01*
X255837Y333854D01*
X255850Y333875D01*
X257010Y336675D01*
X260225Y339890D01*
X264426Y341631D01*
X268974Y341631D01*
X273175Y339890D01*
X276390Y336675D01*
X278131Y332474D01*
X278131Y327926D01*
X276390Y323725D01*
X273175Y320510D01*
X268974Y318769D01*
X264426Y318769D01*
X260225Y320510D01*
X257010Y323725D01*
X255850Y326525D01*
X255849Y326526D01*
X255849Y326527D01*
X255778Y326646D01*
X255705Y326769D01*
X255704Y326770D01*
X255703Y326772D01*
X255600Y326869D01*
X255499Y326965D01*
X255497Y326965D01*
X255496Y326966D01*
X255370Y327031D01*
X255246Y327095D01*
X255244Y327095D01*
X255243Y327096D01*
X255228Y327098D01*
X254967Y327150D01*
X254937Y327147D01*
X254912Y327151D01*
X242983Y327151D01*
X242897Y327139D01*
X242809Y327136D01*
X242757Y327119D01*
X242702Y327111D01*
X242622Y327076D01*
X242539Y327049D01*
X242500Y327021D01*
X242442Y326995D01*
X242329Y326899D01*
X242265Y326854D01*
X226391Y310980D01*
X226390Y310978D01*
X226389Y310977D01*
X226304Y310864D01*
X226220Y310752D01*
X226220Y310751D01*
X226219Y310750D01*
X226169Y310618D01*
X226119Y310487D01*
X226119Y310485D01*
X226118Y310484D01*
X226107Y310339D01*
X226096Y310203D01*
X226096Y310202D01*
X226096Y310200D01*
X226099Y310185D01*
X226151Y309925D01*
X226165Y309898D01*
X226171Y309873D01*
X227331Y307074D01*
X227331Y302526D01*
X225590Y298325D01*
X222375Y295110D01*
X218174Y293369D01*
X213626Y293369D01*
G37*
%LPD*%
%LPC*%
G36*
X213626Y242569D02*
X213626Y242569D01*
X209425Y244310D01*
X206210Y247525D01*
X204469Y251726D01*
X204469Y256274D01*
X206210Y260475D01*
X209425Y263690D01*
X213626Y265431D01*
X218174Y265431D01*
X222375Y263690D01*
X225590Y260475D01*
X226750Y257675D01*
X226751Y257674D01*
X226751Y257673D01*
X226823Y257552D01*
X226895Y257431D01*
X226896Y257430D01*
X226897Y257428D01*
X227000Y257331D01*
X227101Y257235D01*
X227103Y257235D01*
X227104Y257234D01*
X227230Y257169D01*
X227354Y257105D01*
X227356Y257105D01*
X227357Y257104D01*
X227372Y257102D01*
X227633Y257050D01*
X227663Y257053D01*
X227688Y257049D01*
X254912Y257049D01*
X254913Y257049D01*
X254915Y257049D01*
X255055Y257069D01*
X255193Y257089D01*
X255195Y257089D01*
X255196Y257089D01*
X255322Y257146D01*
X255453Y257205D01*
X255454Y257206D01*
X255455Y257207D01*
X255561Y257296D01*
X255670Y257388D01*
X255671Y257390D01*
X255672Y257391D01*
X255680Y257404D01*
X255827Y257625D01*
X255837Y257654D01*
X255850Y257675D01*
X257010Y260475D01*
X260225Y263690D01*
X264426Y265431D01*
X268974Y265431D01*
X273175Y263690D01*
X276390Y260475D01*
X278131Y256274D01*
X278131Y251726D01*
X276390Y247525D01*
X273175Y244310D01*
X268974Y242569D01*
X264426Y242569D01*
X260225Y244310D01*
X257010Y247525D01*
X255850Y250325D01*
X255849Y250326D01*
X255849Y250327D01*
X255780Y250443D01*
X255705Y250569D01*
X255704Y250570D01*
X255703Y250572D01*
X255600Y250669D01*
X255499Y250765D01*
X255497Y250765D01*
X255496Y250766D01*
X255370Y250831D01*
X255246Y250895D01*
X255244Y250895D01*
X255243Y250896D01*
X255228Y250898D01*
X254967Y250950D01*
X254937Y250947D01*
X254912Y250951D01*
X227688Y250951D01*
X227687Y250951D01*
X227685Y250951D01*
X227545Y250931D01*
X227407Y250911D01*
X227405Y250911D01*
X227404Y250911D01*
X227278Y250854D01*
X227147Y250795D01*
X227146Y250794D01*
X227145Y250793D01*
X227037Y250702D01*
X226930Y250612D01*
X226929Y250610D01*
X226928Y250609D01*
X226920Y250596D01*
X226773Y250375D01*
X226763Y250346D01*
X226750Y250325D01*
X225590Y247525D01*
X222375Y244310D01*
X218174Y242569D01*
X213626Y242569D01*
G37*
%LPD*%
%LPC*%
G36*
X213626Y267969D02*
X213626Y267969D01*
X209425Y269710D01*
X206210Y272925D01*
X204469Y277126D01*
X204469Y281674D01*
X206210Y285875D01*
X209425Y289090D01*
X213626Y290831D01*
X218174Y290831D01*
X222375Y289090D01*
X225590Y285875D01*
X226524Y283621D01*
X226583Y283522D01*
X226635Y283420D01*
X226655Y283400D01*
X226669Y283376D01*
X226752Y283297D01*
X226831Y283214D01*
X226855Y283200D01*
X226875Y283181D01*
X226977Y283128D01*
X227077Y283070D01*
X227103Y283063D01*
X227128Y283051D01*
X227241Y283028D01*
X227352Y283000D01*
X227380Y283001D01*
X227407Y282996D01*
X227521Y283006D01*
X227636Y283009D01*
X227663Y283018D01*
X227690Y283020D01*
X227797Y283061D01*
X227907Y283097D01*
X227927Y283111D01*
X227956Y283122D01*
X228168Y283283D01*
X228180Y283292D01*
X230809Y285920D01*
X230810Y285922D01*
X230811Y285923D01*
X230899Y286040D01*
X230980Y286148D01*
X230980Y286149D01*
X230981Y286150D01*
X231031Y286281D01*
X231081Y286413D01*
X231081Y286415D01*
X231082Y286416D01*
X231093Y286561D01*
X231104Y286697D01*
X231104Y286698D01*
X231104Y286700D01*
X231101Y286715D01*
X231049Y286975D01*
X231035Y287002D01*
X231029Y287027D01*
X229869Y289826D01*
X229869Y294374D01*
X231610Y298575D01*
X234825Y301790D01*
X239026Y303531D01*
X243574Y303531D01*
X247775Y301790D01*
X250990Y298575D01*
X252731Y294374D01*
X252731Y289826D01*
X250990Y285625D01*
X247775Y282410D01*
X243574Y280669D01*
X239026Y280669D01*
X236227Y281829D01*
X236225Y281829D01*
X236224Y281830D01*
X236090Y281864D01*
X235951Y281900D01*
X235950Y281900D01*
X235948Y281900D01*
X235808Y281896D01*
X235667Y281892D01*
X235666Y281891D01*
X235664Y281891D01*
X235531Y281848D01*
X235397Y281805D01*
X235395Y281804D01*
X235394Y281804D01*
X235382Y281795D01*
X235160Y281647D01*
X235141Y281623D01*
X235120Y281609D01*
X229863Y276351D01*
X227688Y276351D01*
X227687Y276351D01*
X227685Y276351D01*
X227545Y276331D01*
X227407Y276311D01*
X227405Y276311D01*
X227404Y276311D01*
X227278Y276254D01*
X227147Y276195D01*
X227146Y276194D01*
X227145Y276193D01*
X227037Y276102D01*
X226930Y276012D01*
X226929Y276010D01*
X226928Y276009D01*
X226920Y275996D01*
X226773Y275775D01*
X226763Y275746D01*
X226750Y275725D01*
X225590Y272925D01*
X222375Y269710D01*
X218174Y267969D01*
X213626Y267969D01*
G37*
%LPD*%
%LPC*%
G36*
X213626Y179069D02*
X213626Y179069D01*
X209425Y180810D01*
X206210Y184025D01*
X204469Y188226D01*
X204469Y192774D01*
X206210Y196975D01*
X209425Y200190D01*
X213626Y201931D01*
X218174Y201931D01*
X222375Y200190D01*
X225590Y196975D01*
X226750Y194175D01*
X226751Y194174D01*
X226751Y194173D01*
X226822Y194054D01*
X226895Y193931D01*
X226896Y193930D01*
X226897Y193928D01*
X227000Y193831D01*
X227101Y193735D01*
X227103Y193735D01*
X227104Y193734D01*
X227230Y193669D01*
X227354Y193605D01*
X227356Y193605D01*
X227357Y193604D01*
X227372Y193602D01*
X227633Y193550D01*
X227663Y193553D01*
X227688Y193549D01*
X259586Y193549D01*
X259587Y193549D01*
X259589Y193549D01*
X259730Y193569D01*
X259867Y193589D01*
X259869Y193589D01*
X259870Y193589D01*
X260000Y193648D01*
X260127Y193705D01*
X260128Y193706D01*
X260129Y193707D01*
X260238Y193800D01*
X260344Y193888D01*
X260344Y193890D01*
X260346Y193891D01*
X260354Y193904D01*
X260501Y194125D01*
X260510Y194154D01*
X260524Y194175D01*
X260670Y194529D01*
X262671Y196530D01*
X265285Y197613D01*
X268115Y197613D01*
X270729Y196530D01*
X272730Y194529D01*
X273813Y191915D01*
X273813Y189085D01*
X272730Y186471D01*
X270729Y184470D01*
X268115Y183387D01*
X265285Y183387D01*
X262671Y184470D01*
X260670Y186471D01*
X260524Y186825D01*
X260523Y186826D01*
X260522Y186827D01*
X260452Y186946D01*
X260379Y187069D01*
X260378Y187070D01*
X260377Y187072D01*
X260273Y187170D01*
X260172Y187265D01*
X260171Y187265D01*
X260170Y187266D01*
X260045Y187330D01*
X259920Y187395D01*
X259918Y187395D01*
X259917Y187396D01*
X259902Y187398D01*
X259641Y187450D01*
X259610Y187447D01*
X259586Y187451D01*
X227688Y187451D01*
X227687Y187451D01*
X227685Y187451D01*
X227545Y187431D01*
X227407Y187411D01*
X227405Y187411D01*
X227404Y187411D01*
X227278Y187354D01*
X227147Y187295D01*
X227146Y187294D01*
X227145Y187293D01*
X227037Y187202D01*
X226930Y187112D01*
X226929Y187110D01*
X226928Y187109D01*
X226920Y187096D01*
X226773Y186875D01*
X226763Y186846D01*
X226750Y186825D01*
X225590Y184025D01*
X222375Y180810D01*
X218174Y179069D01*
X213626Y179069D01*
G37*
%LPD*%
%LPC*%
G36*
X330400Y244915D02*
X330400Y244915D01*
X321509Y244915D01*
X321509Y246289D01*
X321510Y246293D01*
X321530Y246397D01*
X321527Y246434D01*
X321531Y246471D01*
X321515Y246575D01*
X321506Y246680D01*
X321492Y246715D01*
X321486Y246752D01*
X321441Y246847D01*
X321404Y246945D01*
X321381Y246975D01*
X321365Y247009D01*
X321296Y247088D01*
X321232Y247172D01*
X321202Y247194D01*
X321177Y247223D01*
X321089Y247279D01*
X321004Y247342D01*
X320969Y247355D01*
X320938Y247376D01*
X320837Y247405D01*
X320738Y247442D01*
X320701Y247445D01*
X320665Y247456D01*
X320560Y247457D01*
X320455Y247465D01*
X320423Y247458D01*
X320381Y247458D01*
X320187Y247403D01*
X320128Y247390D01*
X318915Y246887D01*
X316085Y246887D01*
X313471Y247970D01*
X311470Y249971D01*
X310387Y252585D01*
X310387Y255415D01*
X311470Y258029D01*
X313471Y260030D01*
X316085Y261113D01*
X318915Y261113D01*
X320613Y260409D01*
X320725Y260380D01*
X320834Y260346D01*
X320862Y260345D01*
X320889Y260338D01*
X321003Y260341D01*
X321118Y260339D01*
X321145Y260346D01*
X321173Y260346D01*
X321282Y260381D01*
X321393Y260410D01*
X321417Y260424D01*
X321444Y260433D01*
X321539Y260497D01*
X321638Y260556D01*
X321657Y260576D01*
X321680Y260591D01*
X321754Y260679D01*
X321832Y260763D01*
X321845Y260788D01*
X321863Y260809D01*
X321909Y260914D01*
X321962Y261016D01*
X321966Y261041D01*
X321978Y261069D01*
X322015Y261332D01*
X322017Y261347D01*
X322017Y262742D01*
X322457Y263182D01*
X322493Y263229D01*
X322535Y263269D01*
X322578Y263342D01*
X322628Y263409D01*
X322649Y263464D01*
X322679Y263514D01*
X322699Y263596D01*
X322730Y263675D01*
X322734Y263733D01*
X322749Y263790D01*
X322746Y263874D01*
X322753Y263958D01*
X322742Y264016D01*
X322740Y264074D01*
X322714Y264154D01*
X322697Y264237D01*
X322670Y264289D01*
X322652Y264345D01*
X322612Y264401D01*
X322566Y264489D01*
X322497Y264562D01*
X322457Y264618D01*
X322017Y265058D01*
X322017Y270742D01*
X322457Y271182D01*
X322493Y271229D01*
X322535Y271269D01*
X322578Y271342D01*
X322628Y271409D01*
X322649Y271464D01*
X322679Y271514D01*
X322699Y271596D01*
X322730Y271675D01*
X322734Y271733D01*
X322749Y271790D01*
X322746Y271874D01*
X322753Y271958D01*
X322742Y272016D01*
X322740Y272074D01*
X322714Y272154D01*
X322697Y272237D01*
X322670Y272289D01*
X322652Y272345D01*
X322612Y272401D01*
X322566Y272489D01*
X322497Y272562D01*
X322457Y272618D01*
X322017Y273058D01*
X322017Y278742D01*
X323208Y279933D01*
X337592Y279933D01*
X338783Y278742D01*
X338783Y273058D01*
X338343Y272618D01*
X338308Y272571D01*
X338265Y272531D01*
X338222Y272458D01*
X338172Y272391D01*
X338151Y272336D01*
X338121Y272286D01*
X338100Y272204D01*
X338070Y272125D01*
X338066Y272067D01*
X338051Y272010D01*
X338054Y271926D01*
X338047Y271842D01*
X338058Y271784D01*
X338060Y271726D01*
X338086Y271646D01*
X338103Y271563D01*
X338130Y271511D01*
X338148Y271455D01*
X338188Y271399D01*
X338234Y271311D01*
X338302Y271238D01*
X338343Y271182D01*
X338783Y270742D01*
X338783Y265058D01*
X338343Y264618D01*
X338308Y264571D01*
X338265Y264531D01*
X338222Y264458D01*
X338172Y264391D01*
X338151Y264336D01*
X338121Y264286D01*
X338100Y264204D01*
X338070Y264125D01*
X338066Y264067D01*
X338051Y264010D01*
X338054Y263926D01*
X338047Y263842D01*
X338058Y263784D01*
X338060Y263726D01*
X338086Y263646D01*
X338103Y263563D01*
X338130Y263511D01*
X338148Y263455D01*
X338188Y263399D01*
X338234Y263311D01*
X338302Y263238D01*
X338343Y263182D01*
X338783Y262742D01*
X338783Y257058D01*
X338343Y256618D01*
X338308Y256571D01*
X338265Y256531D01*
X338222Y256458D01*
X338172Y256391D01*
X338151Y256336D01*
X338121Y256286D01*
X338100Y256204D01*
X338070Y256125D01*
X338066Y256067D01*
X338051Y256010D01*
X338054Y255926D01*
X338047Y255842D01*
X338058Y255784D01*
X338060Y255726D01*
X338086Y255646D01*
X338103Y255563D01*
X338130Y255511D01*
X338148Y255455D01*
X338188Y255399D01*
X338234Y255311D01*
X338302Y255238D01*
X338343Y255182D01*
X338783Y254742D01*
X338783Y249058D01*
X338702Y248977D01*
X338689Y248961D01*
X338678Y248951D01*
X338660Y248924D01*
X338624Y248890D01*
X338582Y248817D01*
X338531Y248750D01*
X338510Y248695D01*
X338480Y248645D01*
X338460Y248563D01*
X338430Y248484D01*
X338425Y248426D01*
X338410Y248369D01*
X338413Y248285D01*
X338406Y248201D01*
X338418Y248144D01*
X338419Y248085D01*
X338445Y248005D01*
X338462Y247922D01*
X338489Y247870D01*
X338507Y247815D01*
X338547Y247758D01*
X338593Y247670D01*
X338662Y247598D01*
X338702Y247541D01*
X338783Y247460D01*
X339118Y246881D01*
X339291Y246234D01*
X339291Y244915D01*
X330400Y244915D01*
X330400Y244915D01*
G37*
%LPD*%
%LPC*%
G36*
X475208Y151867D02*
X475208Y151867D01*
X474017Y153058D01*
X474017Y158742D01*
X474457Y159182D01*
X474492Y159229D01*
X474535Y159269D01*
X474578Y159342D01*
X474628Y159409D01*
X474649Y159464D01*
X474679Y159514D01*
X474700Y159596D01*
X474730Y159675D01*
X474734Y159733D01*
X474749Y159790D01*
X474746Y159874D01*
X474753Y159958D01*
X474742Y160016D01*
X474740Y160074D01*
X474714Y160154D01*
X474697Y160237D01*
X474670Y160289D01*
X474652Y160345D01*
X474612Y160401D01*
X474566Y160489D01*
X474498Y160562D01*
X474488Y160576D01*
X474482Y160585D01*
X474479Y160588D01*
X474457Y160618D01*
X474017Y161058D01*
X474017Y166742D01*
X474457Y167182D01*
X474492Y167229D01*
X474535Y167269D01*
X474578Y167342D01*
X474628Y167409D01*
X474649Y167464D01*
X474679Y167514D01*
X474700Y167596D01*
X474730Y167675D01*
X474734Y167733D01*
X474749Y167790D01*
X474746Y167874D01*
X474753Y167958D01*
X474742Y168016D01*
X474740Y168074D01*
X474714Y168154D01*
X474697Y168237D01*
X474670Y168289D01*
X474652Y168345D01*
X474612Y168401D01*
X474566Y168489D01*
X474498Y168562D01*
X474457Y168618D01*
X474017Y169058D01*
X474017Y174742D01*
X474457Y175182D01*
X474492Y175229D01*
X474535Y175269D01*
X474578Y175342D01*
X474628Y175409D01*
X474649Y175464D01*
X474679Y175514D01*
X474700Y175596D01*
X474730Y175675D01*
X474734Y175733D01*
X474749Y175790D01*
X474746Y175874D01*
X474753Y175958D01*
X474742Y176016D01*
X474740Y176074D01*
X474714Y176154D01*
X474697Y176237D01*
X474670Y176289D01*
X474652Y176345D01*
X474612Y176401D01*
X474566Y176489D01*
X474498Y176562D01*
X474457Y176618D01*
X474017Y177058D01*
X474017Y182742D01*
X474457Y183182D01*
X474492Y183229D01*
X474535Y183269D01*
X474578Y183342D01*
X474628Y183409D01*
X474649Y183464D01*
X474679Y183514D01*
X474700Y183596D01*
X474730Y183675D01*
X474734Y183733D01*
X474749Y183790D01*
X474746Y183874D01*
X474753Y183958D01*
X474742Y184016D01*
X474740Y184074D01*
X474714Y184154D01*
X474697Y184237D01*
X474670Y184289D01*
X474652Y184345D01*
X474612Y184401D01*
X474566Y184489D01*
X474498Y184562D01*
X474457Y184618D01*
X474017Y185058D01*
X474017Y190742D01*
X474098Y190823D01*
X474133Y190870D01*
X474176Y190910D01*
X474218Y190983D01*
X474269Y191050D01*
X474290Y191105D01*
X474320Y191155D01*
X474340Y191237D01*
X474370Y191316D01*
X474375Y191374D01*
X474390Y191431D01*
X474387Y191515D01*
X474394Y191599D01*
X474382Y191656D01*
X474381Y191715D01*
X474355Y191795D01*
X474338Y191878D01*
X474311Y191930D01*
X474293Y191985D01*
X474253Y192042D01*
X474207Y192130D01*
X474138Y192202D01*
X474098Y192259D01*
X474017Y192340D01*
X473682Y192919D01*
X473509Y193566D01*
X473509Y194885D01*
X482400Y194885D01*
X491291Y194885D01*
X491291Y193566D01*
X491118Y192919D01*
X490783Y192340D01*
X490702Y192259D01*
X490667Y192212D01*
X490624Y192172D01*
X490582Y192099D01*
X490531Y192032D01*
X490510Y191977D01*
X490480Y191926D01*
X490460Y191845D01*
X490430Y191766D01*
X490425Y191708D01*
X490410Y191651D01*
X490413Y191567D01*
X490406Y191483D01*
X490418Y191425D01*
X490419Y191367D01*
X490445Y191287D01*
X490462Y191204D01*
X490489Y191152D01*
X490507Y191096D01*
X490547Y191040D01*
X490593Y190952D01*
X490662Y190879D01*
X490702Y190823D01*
X490783Y190742D01*
X490783Y185058D01*
X490343Y184618D01*
X490307Y184571D01*
X490265Y184531D01*
X490222Y184458D01*
X490172Y184391D01*
X490151Y184336D01*
X490121Y184286D01*
X490101Y184204D01*
X490070Y184125D01*
X490066Y184067D01*
X490051Y184010D01*
X490054Y183926D01*
X490047Y183842D01*
X490058Y183784D01*
X490060Y183726D01*
X490086Y183646D01*
X490103Y183563D01*
X490130Y183511D01*
X490148Y183455D01*
X490188Y183399D01*
X490234Y183311D01*
X490303Y183238D01*
X490343Y183182D01*
X490783Y182742D01*
X490783Y177058D01*
X490343Y176618D01*
X490307Y176571D01*
X490265Y176531D01*
X490222Y176458D01*
X490172Y176391D01*
X490151Y176336D01*
X490121Y176286D01*
X490101Y176204D01*
X490070Y176125D01*
X490066Y176067D01*
X490051Y176010D01*
X490054Y175926D01*
X490047Y175842D01*
X490058Y175784D01*
X490060Y175726D01*
X490086Y175646D01*
X490103Y175563D01*
X490130Y175511D01*
X490148Y175455D01*
X490188Y175399D01*
X490234Y175311D01*
X490303Y175238D01*
X490343Y175182D01*
X490783Y174742D01*
X490783Y169058D01*
X490343Y168618D01*
X490307Y168571D01*
X490265Y168531D01*
X490222Y168458D01*
X490172Y168391D01*
X490151Y168336D01*
X490121Y168286D01*
X490101Y168204D01*
X490070Y168125D01*
X490066Y168067D01*
X490051Y168010D01*
X490054Y167926D01*
X490047Y167842D01*
X490058Y167784D01*
X490060Y167726D01*
X490086Y167646D01*
X490103Y167563D01*
X490130Y167511D01*
X490148Y167455D01*
X490188Y167399D01*
X490234Y167311D01*
X490303Y167238D01*
X490343Y167182D01*
X490783Y166742D01*
X490783Y161058D01*
X490343Y160618D01*
X490307Y160571D01*
X490265Y160531D01*
X490222Y160458D01*
X490172Y160391D01*
X490151Y160336D01*
X490121Y160286D01*
X490101Y160204D01*
X490070Y160125D01*
X490066Y160067D01*
X490051Y160010D01*
X490054Y159926D01*
X490047Y159842D01*
X490058Y159784D01*
X490060Y159726D01*
X490086Y159646D01*
X490103Y159563D01*
X490130Y159511D01*
X490148Y159455D01*
X490188Y159399D01*
X490234Y159311D01*
X490303Y159238D01*
X490343Y159182D01*
X490783Y158742D01*
X490783Y153058D01*
X489592Y151867D01*
X475208Y151867D01*
G37*
%LPD*%
%LPC*%
G36*
X188226Y179069D02*
X188226Y179069D01*
X184025Y180810D01*
X180810Y184025D01*
X179069Y188226D01*
X179069Y192774D01*
X180810Y196975D01*
X184025Y200190D01*
X186825Y201350D01*
X186826Y201351D01*
X186827Y201351D01*
X186946Y201422D01*
X187069Y201495D01*
X187070Y201496D01*
X187072Y201497D01*
X187169Y201600D01*
X187265Y201701D01*
X187265Y201703D01*
X187266Y201704D01*
X187331Y201830D01*
X187395Y201954D01*
X187395Y201956D01*
X187396Y201957D01*
X187398Y201972D01*
X187450Y202233D01*
X187447Y202263D01*
X187451Y202288D01*
X187451Y208786D01*
X187451Y208787D01*
X187451Y208789D01*
X187431Y208930D01*
X187411Y209067D01*
X187411Y209069D01*
X187411Y209070D01*
X187354Y209195D01*
X187295Y209327D01*
X187294Y209328D01*
X187293Y209329D01*
X187200Y209438D01*
X187112Y209544D01*
X187110Y209544D01*
X187109Y209546D01*
X187096Y209554D01*
X186875Y209701D01*
X186846Y209710D01*
X186825Y209724D01*
X186471Y209870D01*
X184470Y211871D01*
X183387Y214485D01*
X183387Y217315D01*
X184470Y219929D01*
X186471Y221930D01*
X189085Y223013D01*
X191915Y223013D01*
X194529Y221930D01*
X196530Y219929D01*
X197613Y217315D01*
X197613Y214485D01*
X196530Y211871D01*
X194529Y209870D01*
X194175Y209724D01*
X194174Y209723D01*
X194173Y209722D01*
X194052Y209651D01*
X193931Y209579D01*
X193930Y209578D01*
X193928Y209577D01*
X193830Y209473D01*
X193735Y209372D01*
X193735Y209371D01*
X193734Y209370D01*
X193669Y209244D01*
X193605Y209120D01*
X193605Y209118D01*
X193604Y209117D01*
X193602Y209102D01*
X193550Y208841D01*
X193553Y208810D01*
X193549Y208786D01*
X193549Y202288D01*
X193549Y202287D01*
X193549Y202285D01*
X193569Y202145D01*
X193589Y202007D01*
X193589Y202005D01*
X193589Y202004D01*
X193646Y201878D01*
X193705Y201747D01*
X193706Y201746D01*
X193707Y201745D01*
X193798Y201637D01*
X193888Y201530D01*
X193890Y201529D01*
X193891Y201528D01*
X193904Y201520D01*
X194125Y201373D01*
X194154Y201363D01*
X194175Y201350D01*
X196975Y200190D01*
X200190Y196975D01*
X201931Y192774D01*
X201931Y188226D01*
X200190Y184025D01*
X196975Y180810D01*
X192774Y179069D01*
X188226Y179069D01*
G37*
%LPD*%
%LPC*%
G36*
X289826Y242569D02*
X289826Y242569D01*
X285625Y244310D01*
X282410Y247525D01*
X280669Y251726D01*
X280669Y256274D01*
X282410Y260475D01*
X285625Y263690D01*
X289826Y265431D01*
X294374Y265431D01*
X296283Y264640D01*
X296395Y264611D01*
X296504Y264576D01*
X296532Y264576D01*
X296559Y264569D01*
X296673Y264572D01*
X296788Y264569D01*
X296815Y264576D01*
X296843Y264577D01*
X296952Y264612D01*
X297063Y264641D01*
X297087Y264655D01*
X297114Y264664D01*
X297209Y264728D01*
X297308Y264786D01*
X297327Y264806D01*
X297350Y264822D01*
X297424Y264910D01*
X297502Y264993D01*
X297515Y265018D01*
X297533Y265039D01*
X297579Y265144D01*
X297632Y265247D01*
X297636Y265271D01*
X297648Y265299D01*
X297685Y265563D01*
X297687Y265578D01*
X297687Y268115D01*
X298770Y270729D01*
X300771Y272730D01*
X303385Y273813D01*
X306215Y273813D01*
X308829Y272730D01*
X310830Y270729D01*
X311913Y268115D01*
X311913Y265285D01*
X310830Y262671D01*
X308829Y260670D01*
X306215Y259587D01*
X303678Y259587D01*
X303564Y259571D01*
X303450Y259561D01*
X303424Y259551D01*
X303396Y259547D01*
X303291Y259500D01*
X303184Y259459D01*
X303162Y259443D01*
X303137Y259431D01*
X303049Y259357D01*
X302958Y259288D01*
X302941Y259265D01*
X302920Y259248D01*
X302856Y259152D01*
X302787Y259060D01*
X302778Y259034D01*
X302762Y259011D01*
X302727Y258901D01*
X302687Y258794D01*
X302685Y258766D01*
X302676Y258740D01*
X302673Y258625D01*
X302664Y258511D01*
X302670Y258486D01*
X302669Y258456D01*
X302736Y258199D01*
X302740Y258183D01*
X303531Y256274D01*
X303531Y251726D01*
X301790Y247525D01*
X298575Y244310D01*
X294374Y242569D01*
X289826Y242569D01*
G37*
%LPD*%
%LPC*%
G36*
X556375Y395477D02*
X556375Y395477D01*
X551893Y397334D01*
X548464Y400763D01*
X546607Y405245D01*
X546607Y410095D01*
X548464Y414577D01*
X551893Y418006D01*
X556375Y419863D01*
X561225Y419863D01*
X565707Y418006D01*
X569136Y414577D01*
X570993Y410095D01*
X570993Y405245D01*
X569136Y400763D01*
X565707Y397334D01*
X561225Y395477D01*
X556375Y395477D01*
G37*
%LPD*%
%LPC*%
G36*
X493026Y394969D02*
X493026Y394969D01*
X488825Y396710D01*
X485610Y399925D01*
X483869Y404126D01*
X483869Y408674D01*
X485610Y412875D01*
X488825Y416090D01*
X493026Y417831D01*
X497574Y417831D01*
X501775Y416090D01*
X504990Y412875D01*
X506731Y408674D01*
X506731Y404126D01*
X504990Y399925D01*
X501775Y396710D01*
X497574Y394969D01*
X493026Y394969D01*
G37*
%LPD*%
%LPC*%
G36*
X162826Y179069D02*
X162826Y179069D01*
X158625Y180810D01*
X155410Y184025D01*
X153669Y188226D01*
X153669Y192774D01*
X155410Y196975D01*
X158625Y200190D01*
X162826Y201931D01*
X167374Y201931D01*
X171575Y200190D01*
X174790Y196975D01*
X176531Y192774D01*
X176531Y188226D01*
X174790Y184025D01*
X171575Y180810D01*
X167374Y179069D01*
X162826Y179069D01*
G37*
%LPD*%
%LPC*%
G36*
X633231Y236031D02*
X633231Y236031D01*
X633231Y258055D01*
X635249Y257827D01*
X637891Y257224D01*
X640449Y256329D01*
X642891Y255153D01*
X645186Y253711D01*
X647305Y252021D01*
X649221Y250105D01*
X650911Y247986D01*
X652353Y245691D01*
X653529Y243249D01*
X654424Y240691D01*
X655027Y238049D01*
X655255Y236031D01*
X633231Y236031D01*
G37*
%LPD*%
%LPC*%
G36*
X586231Y206031D02*
X586231Y206031D01*
X586231Y228055D01*
X588249Y227827D01*
X590891Y227224D01*
X593449Y226329D01*
X595891Y225153D01*
X598186Y223711D01*
X600305Y222021D01*
X602221Y220105D01*
X603911Y217986D01*
X605353Y215691D01*
X606529Y213249D01*
X607424Y210691D01*
X608027Y208049D01*
X608255Y206031D01*
X586231Y206031D01*
G37*
%LPD*%
%LPC*%
G36*
X607145Y236031D02*
X607145Y236031D01*
X607373Y238049D01*
X607976Y240691D01*
X608871Y243249D01*
X609125Y243776D01*
X609613Y244791D01*
X609614Y244791D01*
X610047Y245691D01*
X611489Y247986D01*
X613179Y250105D01*
X615095Y252021D01*
X617214Y253711D01*
X618506Y254523D01*
X618507Y254523D01*
X619509Y255153D01*
X621951Y256329D01*
X624509Y257224D01*
X627151Y257827D01*
X629169Y258055D01*
X629169Y236031D01*
X607145Y236031D01*
G37*
%LPD*%
%LPC*%
G36*
X633231Y231969D02*
X633231Y231969D01*
X655255Y231969D01*
X655027Y229951D01*
X654424Y227309D01*
X653529Y224751D01*
X653335Y224349D01*
X653335Y224348D01*
X652846Y223333D01*
X652353Y222309D01*
X650911Y220014D01*
X649221Y217895D01*
X647305Y215979D01*
X645186Y214289D01*
X642891Y212847D01*
X640449Y211671D01*
X637891Y210776D01*
X635249Y210173D01*
X633231Y209945D01*
X633231Y231969D01*
G37*
%LPD*%
%LPC*%
G36*
X560145Y206031D02*
X560145Y206031D01*
X560373Y208049D01*
X560976Y210691D01*
X561871Y213249D01*
X561904Y213318D01*
X562393Y214333D01*
X562393Y214334D01*
X562882Y215349D01*
X563047Y215691D01*
X564489Y217986D01*
X566179Y220105D01*
X568095Y222021D01*
X570214Y223711D01*
X570778Y224066D01*
X570779Y224066D01*
X572509Y225153D01*
X574951Y226329D01*
X577509Y227224D01*
X580151Y227827D01*
X582169Y228055D01*
X582169Y206031D01*
X560145Y206031D01*
G37*
%LPD*%
%LPC*%
G36*
X586231Y201969D02*
X586231Y201969D01*
X608255Y201969D01*
X608027Y199951D01*
X607424Y197309D01*
X606529Y194751D01*
X606115Y193891D01*
X605626Y192876D01*
X605626Y192875D01*
X605353Y192309D01*
X603911Y190014D01*
X602221Y187895D01*
X600305Y185979D01*
X598186Y184289D01*
X597979Y184159D01*
X597978Y184159D01*
X595891Y182847D01*
X593449Y181671D01*
X590891Y180776D01*
X588249Y180173D01*
X586231Y179945D01*
X586231Y201969D01*
G37*
%LPD*%
%LPC*%
G36*
X627151Y210173D02*
X627151Y210173D01*
X624509Y210776D01*
X621951Y211671D01*
X619509Y212847D01*
X617214Y214289D01*
X615095Y215979D01*
X613179Y217895D01*
X611489Y220014D01*
X610047Y222309D01*
X608871Y224751D01*
X607976Y227309D01*
X607373Y229951D01*
X607145Y231969D01*
X629169Y231969D01*
X629169Y209945D01*
X627151Y210173D01*
G37*
%LPD*%
%LPC*%
G36*
X580151Y180173D02*
X580151Y180173D01*
X577509Y180776D01*
X574951Y181671D01*
X572509Y182847D01*
X570214Y184289D01*
X568095Y185979D01*
X566179Y187895D01*
X564489Y190014D01*
X563047Y192309D01*
X561871Y194751D01*
X560976Y197309D01*
X560373Y199951D01*
X560145Y201969D01*
X582169Y201969D01*
X582169Y179945D01*
X580151Y180173D01*
G37*
%LPD*%
%LPC*%
G36*
X318261Y408431D02*
X318261Y408431D01*
X318261Y418937D01*
X319204Y418788D01*
X321105Y418170D01*
X322887Y417263D01*
X324504Y416088D01*
X325918Y414674D01*
X327093Y413057D01*
X328000Y411275D01*
X328618Y409374D01*
X328767Y408431D01*
X318261Y408431D01*
G37*
%LPD*%
%LPC*%
G36*
X303693Y408431D02*
X303693Y408431D01*
X303842Y409374D01*
X304460Y411275D01*
X305367Y413057D01*
X306542Y414674D01*
X307956Y416088D01*
X309573Y417263D01*
X311355Y418170D01*
X313256Y418788D01*
X314199Y418937D01*
X314199Y408431D01*
X303693Y408431D01*
G37*
%LPD*%
%LPC*%
G36*
X318261Y404369D02*
X318261Y404369D01*
X328767Y404369D01*
X328618Y403426D01*
X328000Y401525D01*
X327093Y399743D01*
X325918Y398126D01*
X324504Y396712D01*
X322887Y395537D01*
X321105Y394630D01*
X319204Y394012D01*
X318261Y393863D01*
X318261Y404369D01*
G37*
%LPD*%
%LPC*%
G36*
X313256Y394012D02*
X313256Y394012D01*
X311355Y394630D01*
X309573Y395537D01*
X307956Y396712D01*
X306542Y398126D01*
X305367Y399743D01*
X304460Y401525D01*
X303842Y403426D01*
X303693Y404369D01*
X314199Y404369D01*
X314199Y393863D01*
X313256Y394012D01*
G37*
%LPD*%
%LPC*%
G36*
X141731Y256031D02*
X141731Y256031D01*
X141731Y265887D01*
X141745Y265878D01*
X141846Y265804D01*
X141861Y265799D01*
X141876Y265788D01*
X142146Y265700D01*
X142155Y265700D01*
X142164Y265697D01*
X142496Y265645D01*
X144283Y265064D01*
X145957Y264211D01*
X147478Y263106D01*
X148806Y261778D01*
X149911Y260257D01*
X150764Y258583D01*
X151345Y256796D01*
X151466Y256031D01*
X141731Y256031D01*
G37*
%LPD*%
%LPC*%
G36*
X141731Y281431D02*
X141731Y281431D01*
X141731Y291287D01*
X141745Y291278D01*
X141846Y291204D01*
X141861Y291199D01*
X141876Y291188D01*
X142146Y291100D01*
X142155Y291100D01*
X142164Y291097D01*
X142496Y291045D01*
X144283Y290464D01*
X145957Y289611D01*
X147478Y288506D01*
X148806Y287178D01*
X149911Y285657D01*
X150764Y283983D01*
X151345Y282196D01*
X151466Y281431D01*
X141731Y281431D01*
G37*
%LPD*%
%LPC*%
G36*
X127934Y256031D02*
X127934Y256031D01*
X128055Y256796D01*
X128636Y258583D01*
X129489Y260257D01*
X130594Y261778D01*
X131922Y263106D01*
X133443Y264211D01*
X135117Y265064D01*
X136904Y265645D01*
X137236Y265697D01*
X137356Y265734D01*
X137477Y265767D01*
X137491Y265776D01*
X137508Y265781D01*
X137613Y265849D01*
X137669Y265883D01*
X137669Y256031D01*
X127934Y256031D01*
G37*
%LPD*%
%LPC*%
G36*
X127934Y281431D02*
X127934Y281431D01*
X128055Y282196D01*
X128636Y283983D01*
X129489Y285657D01*
X130594Y287178D01*
X131922Y288506D01*
X133443Y289611D01*
X135117Y290464D01*
X136904Y291045D01*
X137236Y291097D01*
X137356Y291134D01*
X137477Y291167D01*
X137491Y291176D01*
X137508Y291181D01*
X137613Y291249D01*
X137669Y291283D01*
X137669Y281431D01*
X127934Y281431D01*
G37*
%LPD*%
%LPC*%
G36*
X141731Y302769D02*
X141731Y302769D01*
X151466Y302769D01*
X151345Y302004D01*
X150764Y300217D01*
X149911Y298543D01*
X148806Y297022D01*
X147478Y295694D01*
X145957Y294589D01*
X144283Y293736D01*
X142496Y293155D01*
X142164Y293103D01*
X142044Y293066D01*
X141923Y293033D01*
X141909Y293024D01*
X141892Y293019D01*
X141787Y292951D01*
X141731Y292917D01*
X141731Y302769D01*
G37*
%LPD*%
%LPC*%
G36*
X141731Y277369D02*
X141731Y277369D01*
X151466Y277369D01*
X151345Y276604D01*
X150764Y274817D01*
X149911Y273143D01*
X148806Y271622D01*
X147478Y270294D01*
X145957Y269189D01*
X144283Y268336D01*
X142496Y267755D01*
X142164Y267703D01*
X142044Y267666D01*
X141923Y267633D01*
X141909Y267624D01*
X141892Y267619D01*
X141787Y267551D01*
X141731Y267517D01*
X141731Y277369D01*
G37*
%LPD*%
%LPC*%
G36*
X137655Y292922D02*
X137655Y292922D01*
X137554Y292996D01*
X137540Y293001D01*
X137524Y293011D01*
X137254Y293100D01*
X137245Y293100D01*
X137236Y293103D01*
X136904Y293155D01*
X135117Y293736D01*
X133443Y294589D01*
X131922Y295694D01*
X130594Y297022D01*
X129489Y298543D01*
X128636Y300217D01*
X128055Y302004D01*
X127934Y302769D01*
X137669Y302769D01*
X137669Y292913D01*
X137655Y292922D01*
G37*
%LPD*%
%LPC*%
G36*
X137655Y267522D02*
X137655Y267522D01*
X137554Y267596D01*
X137540Y267601D01*
X137524Y267611D01*
X137254Y267700D01*
X137245Y267700D01*
X137236Y267703D01*
X136904Y267755D01*
X135117Y268336D01*
X133443Y269189D01*
X131922Y270294D01*
X130594Y271622D01*
X129489Y273143D01*
X128636Y274817D01*
X128055Y276604D01*
X127934Y277369D01*
X137669Y277369D01*
X137669Y267513D01*
X137655Y267522D01*
G37*
%LPD*%
%LPC*%
G36*
X141731Y306831D02*
X141731Y306831D01*
X141731Y316566D01*
X142496Y316445D01*
X144283Y315864D01*
X145957Y315011D01*
X147478Y313906D01*
X148806Y312578D01*
X149911Y311057D01*
X150764Y309383D01*
X151345Y307596D01*
X151466Y306831D01*
X141731Y306831D01*
G37*
%LPD*%
%LPC*%
G36*
X319531Y370331D02*
X319531Y370331D01*
X319531Y380066D01*
X320296Y379945D01*
X322083Y379364D01*
X323757Y378511D01*
X325278Y377406D01*
X326606Y376078D01*
X327711Y374557D01*
X328564Y372883D01*
X329145Y371096D01*
X329266Y370331D01*
X319531Y370331D01*
G37*
%LPD*%
%LPC*%
G36*
X167131Y167131D02*
X167131Y167131D01*
X167131Y176866D01*
X167896Y176745D01*
X169683Y176164D01*
X171357Y175311D01*
X172878Y174206D01*
X174206Y172878D01*
X175311Y171357D01*
X176164Y169683D01*
X176745Y167896D01*
X176866Y167131D01*
X167131Y167131D01*
G37*
%LPD*%
%LPC*%
G36*
X522731Y408431D02*
X522731Y408431D01*
X522731Y418166D01*
X523496Y418045D01*
X525283Y417464D01*
X526957Y416611D01*
X528478Y415506D01*
X529806Y414178D01*
X530911Y412657D01*
X531764Y410983D01*
X532345Y409196D01*
X532466Y408431D01*
X522731Y408431D01*
G37*
%LPD*%
%LPC*%
G36*
X127934Y306831D02*
X127934Y306831D01*
X128055Y307596D01*
X128636Y309383D01*
X129489Y311057D01*
X130594Y312578D01*
X131922Y313906D01*
X133443Y315011D01*
X135117Y315864D01*
X136904Y316445D01*
X137669Y316566D01*
X137669Y306831D01*
X127934Y306831D01*
G37*
%LPD*%
%LPC*%
G36*
X141731Y251969D02*
X141731Y251969D01*
X151466Y251969D01*
X151345Y251204D01*
X150764Y249417D01*
X149911Y247743D01*
X148806Y246222D01*
X147478Y244894D01*
X145957Y243789D01*
X144283Y242936D01*
X142496Y242355D01*
X141731Y242234D01*
X141731Y251969D01*
G37*
%LPD*%
%LPC*%
G36*
X153334Y167131D02*
X153334Y167131D01*
X153455Y167896D01*
X154036Y169683D01*
X154889Y171357D01*
X155994Y172878D01*
X157322Y174206D01*
X158843Y175311D01*
X160517Y176164D01*
X162304Y176745D01*
X163069Y176866D01*
X163069Y167131D01*
X153334Y167131D01*
G37*
%LPD*%
%LPC*%
G36*
X319531Y366269D02*
X319531Y366269D01*
X329266Y366269D01*
X329145Y365504D01*
X328564Y363717D01*
X327711Y362043D01*
X326606Y360522D01*
X325278Y359194D01*
X323757Y358089D01*
X322083Y357236D01*
X320296Y356655D01*
X319531Y356534D01*
X319531Y366269D01*
G37*
%LPD*%
%LPC*%
G36*
X167131Y163069D02*
X167131Y163069D01*
X176866Y163069D01*
X176745Y162304D01*
X176164Y160517D01*
X175311Y158843D01*
X174206Y157322D01*
X172878Y155994D01*
X171357Y154889D01*
X169683Y154036D01*
X167896Y153455D01*
X167131Y153334D01*
X167131Y163069D01*
G37*
%LPD*%
%LPC*%
G36*
X305734Y370331D02*
X305734Y370331D01*
X305855Y371096D01*
X306436Y372883D01*
X307289Y374557D01*
X308394Y376078D01*
X309722Y377406D01*
X311243Y378511D01*
X312917Y379364D01*
X314704Y379945D01*
X315469Y380066D01*
X315469Y370331D01*
X305734Y370331D01*
G37*
%LPD*%
%LPC*%
G36*
X508934Y408431D02*
X508934Y408431D01*
X509055Y409196D01*
X509636Y410983D01*
X510489Y412657D01*
X511594Y414178D01*
X512922Y415506D01*
X514443Y416611D01*
X516117Y417464D01*
X517904Y418045D01*
X518669Y418166D01*
X518669Y408431D01*
X508934Y408431D01*
G37*
%LPD*%
%LPC*%
G36*
X522731Y404369D02*
X522731Y404369D01*
X532466Y404369D01*
X532345Y403604D01*
X531764Y401817D01*
X530911Y400143D01*
X529806Y398622D01*
X528478Y397294D01*
X526957Y396189D01*
X525283Y395336D01*
X523496Y394755D01*
X522731Y394634D01*
X522731Y404369D01*
G37*
%LPD*%
%LPC*%
G36*
X162304Y153455D02*
X162304Y153455D01*
X160517Y154036D01*
X158843Y154889D01*
X157322Y155994D01*
X155994Y157322D01*
X154889Y158843D01*
X154036Y160517D01*
X153455Y162304D01*
X153334Y163069D01*
X163069Y163069D01*
X163069Y153334D01*
X162304Y153455D01*
G37*
%LPD*%
%LPC*%
G36*
X136904Y242355D02*
X136904Y242355D01*
X135117Y242936D01*
X133443Y243789D01*
X131922Y244894D01*
X130594Y246222D01*
X129489Y247743D01*
X128636Y249417D01*
X128055Y251204D01*
X127934Y251969D01*
X137669Y251969D01*
X137669Y242234D01*
X136904Y242355D01*
G37*
%LPD*%
%LPC*%
G36*
X314704Y356655D02*
X314704Y356655D01*
X312917Y357236D01*
X311243Y358089D01*
X309722Y359194D01*
X308394Y360522D01*
X307289Y362043D01*
X306436Y363717D01*
X305855Y365504D01*
X305734Y366269D01*
X315469Y366269D01*
X315469Y356534D01*
X314704Y356655D01*
G37*
%LPD*%
%LPC*%
G36*
X517904Y394755D02*
X517904Y394755D01*
X516117Y395336D01*
X514443Y396189D01*
X512922Y397294D01*
X511594Y398622D01*
X510489Y400143D01*
X509636Y401817D01*
X509055Y403604D01*
X508934Y404369D01*
X518669Y404369D01*
X518669Y394634D01*
X517904Y394755D01*
G37*
%LPD*%
%LPC*%
G36*
X584199Y203999D02*
X584199Y203999D01*
X584199Y204001D01*
X584201Y204001D01*
X584201Y203999D01*
X584199Y203999D01*
G37*
%LPD*%
%LPC*%
G36*
X631199Y233999D02*
X631199Y233999D01*
X631199Y234001D01*
X631201Y234001D01*
X631201Y233999D01*
X631199Y233999D01*
G37*
%LPD*%
%LPC*%
G36*
X139699Y253999D02*
X139699Y253999D01*
X139699Y254001D01*
X139701Y254001D01*
X139701Y253999D01*
X139699Y253999D01*
G37*
%LPD*%
%LPC*%
G36*
X139699Y279399D02*
X139699Y279399D01*
X139699Y279401D01*
X139701Y279401D01*
X139701Y279399D01*
X139699Y279399D01*
G37*
%LPD*%
%LPC*%
G36*
X139699Y304799D02*
X139699Y304799D01*
X139699Y304801D01*
X139701Y304801D01*
X139701Y304799D01*
X139699Y304799D01*
G37*
%LPD*%
%LPC*%
G36*
X520699Y406399D02*
X520699Y406399D01*
X520699Y406401D01*
X520701Y406401D01*
X520701Y406399D01*
X520699Y406399D01*
G37*
%LPD*%
%LPC*%
G36*
X316229Y406399D02*
X316229Y406399D01*
X316229Y406401D01*
X316231Y406401D01*
X316231Y406399D01*
X316229Y406399D01*
G37*
%LPD*%
%LPC*%
G36*
X165099Y165099D02*
X165099Y165099D01*
X165099Y165101D01*
X165101Y165101D01*
X165101Y165099D01*
X165099Y165099D01*
G37*
%LPD*%
%LPC*%
G36*
X317499Y368299D02*
X317499Y368299D01*
X317499Y368301D01*
X317501Y368301D01*
X317501Y368299D01*
X317499Y368299D01*
G37*
%LPD*%
D10*
X558800Y407670D03*
X558800Y379730D03*
X344170Y406400D03*
X316230Y406400D03*
D11*
X292100Y330200D03*
X266700Y330200D03*
X292100Y254000D03*
X266700Y254000D03*
X266700Y292100D03*
X241300Y292100D03*
D12*
X584200Y264000D03*
X584200Y204000D03*
X631200Y234000D03*
D11*
X393700Y406400D03*
X419100Y406400D03*
X444500Y406400D03*
X469900Y406400D03*
X495300Y406400D03*
X520700Y406400D03*
X215900Y190500D03*
X215900Y165100D03*
X190500Y190500D03*
X190500Y165100D03*
X165100Y190500D03*
X165100Y165100D03*
X495300Y368300D03*
X469900Y368300D03*
X444500Y368300D03*
X419100Y368300D03*
X393700Y368300D03*
X368300Y368300D03*
X342900Y368300D03*
X317500Y368300D03*
X139700Y254000D03*
X215900Y254000D03*
X139700Y279400D03*
X215900Y279400D03*
X139700Y304800D03*
X215900Y304800D03*
X558800Y317500D03*
X635000Y317500D03*
D13*
X330400Y219900D03*
X330400Y211900D03*
X330400Y203900D03*
X330400Y227900D03*
X330400Y235900D03*
X330400Y195900D03*
X330400Y187900D03*
X330400Y243900D03*
X330400Y251900D03*
X330400Y179900D03*
X330400Y171900D03*
X330400Y259900D03*
X330400Y267900D03*
X330400Y163900D03*
X330400Y275900D03*
X330400Y155900D03*
D14*
X402400Y139900D03*
X410400Y139900D03*
X418400Y139900D03*
X394400Y139900D03*
X386400Y139900D03*
X426400Y139900D03*
X434400Y139900D03*
X378400Y139900D03*
X370400Y139900D03*
X442400Y139900D03*
X450400Y139900D03*
X362400Y139900D03*
X354400Y139900D03*
X458400Y139900D03*
X346400Y139900D03*
X466400Y139900D03*
D13*
X482400Y211900D03*
X482400Y219900D03*
X482400Y227900D03*
X482400Y203900D03*
X482400Y195900D03*
X482400Y235900D03*
X482400Y243900D03*
X482400Y187900D03*
X482400Y179900D03*
X482400Y251900D03*
X482400Y259900D03*
X482400Y171900D03*
X482400Y163900D03*
X482400Y267900D03*
X482400Y155900D03*
X482400Y275900D03*
D14*
X410400Y291900D03*
X402400Y291900D03*
X394400Y291900D03*
X418400Y291900D03*
X426400Y291900D03*
X386400Y291900D03*
X378400Y291900D03*
X434400Y291900D03*
X442400Y291900D03*
X370400Y291900D03*
X362400Y291900D03*
X450400Y291900D03*
X458400Y291900D03*
X354400Y291900D03*
X466400Y291900D03*
X346400Y291900D03*
D15*
X327448Y158852D02*
X322788Y158852D01*
X327448Y158852D02*
X330400Y155900D01*
X316540Y165100D02*
X215900Y165100D01*
X316540Y165100D02*
X322788Y158852D01*
X344170Y406400D02*
X342900Y407670D01*
X342900Y431800D01*
D16*
X342900Y431800D03*
X317500Y254000D03*
D15*
X328300Y254000D01*
X330400Y251900D01*
D16*
X316938Y228600D03*
D15*
X316938Y165499D01*
X316540Y165100D01*
D16*
X469900Y406400D03*
X520700Y368300D03*
D15*
X487426Y388874D02*
X469900Y406400D01*
X487426Y388874D02*
X498075Y388874D01*
X518649Y368300D02*
X520700Y368300D01*
X518649Y368300D02*
X498075Y388874D01*
D16*
X520700Y368300D03*
X520700Y368300D03*
D15*
X584200Y266700D02*
X635000Y317500D01*
X584200Y266700D02*
X584200Y264000D01*
X376099Y406400D02*
X344170Y406400D01*
X462101Y406400D02*
X469900Y406400D01*
X388545Y418846D02*
X376099Y406400D01*
X449655Y418846D02*
X462101Y406400D01*
X449655Y418846D02*
X388545Y418846D01*
X139700Y304800D02*
X139700Y279400D01*
X139700Y254000D01*
X139700Y241300D02*
X165100Y165100D01*
X139700Y241300D02*
X139700Y254000D01*
X139700Y304800D02*
X203200Y368300D01*
X317500Y368300D01*
X316230Y369570D01*
X316230Y406400D01*
X482400Y195900D02*
X482600Y195900D01*
X576100Y195900D01*
X584200Y204000D01*
X601200Y204000D01*
X631200Y234000D01*
X317500Y342900D02*
X317500Y368300D01*
D16*
X317500Y342900D03*
X304800Y241300D03*
D15*
X307400Y243900D01*
X330400Y243900D01*
X520700Y406400D02*
X520700Y431800D01*
X346267Y439928D02*
X339533Y439928D01*
X334772Y435167D01*
X354395Y431800D02*
X520700Y431800D01*
X334772Y424942D02*
X316230Y406400D01*
X346267Y439928D02*
X354395Y431800D01*
X334772Y435167D02*
X334772Y424942D01*
X474788Y198852D02*
X479648Y198852D01*
X482600Y195900D01*
X429740Y243900D02*
X330400Y243900D01*
X429740Y243900D02*
X474788Y198852D01*
X346400Y139900D02*
X333500Y127000D01*
X304800Y127000D01*
D16*
X304800Y127000D03*
D15*
X558800Y317500D02*
X558800Y379730D01*
X453352Y299513D02*
X453352Y294852D01*
X450400Y291900D01*
X469900Y316061D02*
X469900Y368300D01*
X469900Y316061D02*
X453352Y299513D01*
X444500Y294000D02*
X444500Y368300D01*
X444500Y294000D02*
X442400Y291900D01*
X434400Y353000D02*
X419100Y368300D01*
X434400Y353000D02*
X434400Y291900D01*
X426400Y335600D02*
X393700Y368300D01*
X426400Y335600D02*
X426400Y291900D01*
X418400Y318200D02*
X368300Y368300D01*
X418400Y318200D02*
X418400Y291900D01*
X410400Y300800D02*
X342900Y368300D01*
X410400Y300800D02*
X410400Y291900D01*
X304800Y266700D02*
X292100Y254000D01*
D16*
X304800Y266700D03*
X342900Y317500D03*
D15*
X367448Y299513D02*
X367448Y294852D01*
X370400Y291900D01*
X349461Y317500D02*
X342900Y317500D01*
X349461Y317500D02*
X367448Y299513D01*
X241300Y330200D02*
X215900Y304800D01*
X241300Y330200D02*
X266700Y330200D01*
X266700Y254000D02*
X215900Y254000D01*
X215900Y279400D02*
X228600Y279400D01*
X241300Y292100D01*
X444500Y406400D02*
X466090Y384810D01*
X485352Y222852D02*
X490013Y222852D01*
X485352Y222852D02*
X482400Y219900D01*
X496391Y384810D02*
X466090Y384810D01*
X496391Y384810D02*
X507746Y373455D01*
X507746Y240586D01*
X490013Y222852D01*
X444754Y380746D02*
X419100Y406400D01*
X491798Y232638D02*
X490013Y230852D01*
X485352Y230852D01*
X482400Y227900D01*
X482400Y343100D02*
X482400Y373401D01*
X482400Y343100D02*
X491798Y333702D01*
X482400Y373401D02*
X475055Y380746D01*
X491798Y333702D02*
X491798Y232638D01*
X475055Y380746D02*
X444754Y380746D01*
X431448Y119588D02*
X429663Y117802D01*
X431448Y136948D02*
X434400Y139900D01*
X431448Y136948D02*
X431448Y119588D01*
X429663Y117802D02*
X237798Y117802D01*
X190500Y165100D01*
X215900Y190500D02*
X266700Y190500D01*
D16*
X266700Y190500D03*
X444500Y114300D03*
D15*
X442400Y116400D01*
X442400Y139900D01*
X190500Y190500D02*
X190500Y215900D01*
D16*
X190500Y215900D03*
X419100Y126438D03*
D15*
X426400Y133738D01*
X426400Y139900D01*
X375448Y294852D02*
X375448Y299513D01*
X375448Y294852D02*
X378400Y291900D01*
X344761Y330200D02*
X292100Y330200D01*
X344761Y330200D02*
X375448Y299513D01*
X359448Y299513D02*
X357663Y301298D01*
X333940Y292100D02*
X266700Y292100D01*
X359448Y294852D02*
X359448Y299513D01*
X343138Y301298D02*
X333940Y292100D01*
X343138Y301298D02*
X357663Y301298D01*
X359448Y294852D02*
X362400Y291900D01*
M02*
