G04 EAGLE Gerber RS-274X export*
G75*
%MOMM*%
%FSLAX34Y34*%
%LPD*%
%INBottom Copper*%
%IPPOS*%
%AMOC8*
5,1,8,0,0,1.08239X$1,22.5*%
G01*
%ADD10C,2.032000*%
%ADD11C,1.879600*%
%ADD12C,4.318000*%
%ADD13C,1.016000*%
%ADD14C,0.203200*%


D10*
X558800Y407670D03*
X558800Y379730D03*
X344170Y406400D03*
X316230Y406400D03*
D11*
X292100Y330200D03*
X266700Y330200D03*
X292100Y254000D03*
X266700Y254000D03*
X266700Y292100D03*
X241300Y292100D03*
D12*
X584200Y264000D03*
X584200Y204000D03*
X631200Y234000D03*
D11*
X393700Y406400D03*
X419100Y406400D03*
X444500Y406400D03*
X469900Y406400D03*
X495300Y406400D03*
X520700Y406400D03*
X215900Y190500D03*
X215900Y165100D03*
X190500Y190500D03*
X190500Y165100D03*
X165100Y190500D03*
X165100Y165100D03*
X495300Y368300D03*
X469900Y368300D03*
X444500Y368300D03*
X419100Y368300D03*
X393700Y368300D03*
X368300Y368300D03*
X342900Y368300D03*
X317500Y368300D03*
X139700Y254000D03*
X215900Y254000D03*
X139700Y279400D03*
X215900Y279400D03*
X139700Y304800D03*
X215900Y304800D03*
X558800Y317500D03*
X635000Y317500D03*
D13*
X342900Y431800D03*
D14*
X342900Y385901D01*
X355346Y373455D01*
X355346Y291846D01*
X317500Y254000D01*
D13*
X317500Y254000D03*
D14*
X317500Y228600D01*
X316938Y228600D01*
D13*
X316938Y228600D03*
X469900Y406400D03*
X520700Y368300D03*
X520700Y368300D03*
X520700Y368300D03*
D14*
X495300Y368300D01*
X576401Y317500D02*
X635000Y317500D01*
X576401Y317500D02*
X563955Y329946D01*
X533654Y329946D02*
X495300Y368300D01*
X533654Y329946D02*
X563955Y329946D01*
D13*
X317500Y342900D03*
D14*
X346267Y325628D02*
X351028Y320867D01*
X309372Y245872D02*
X304800Y241300D01*
X309372Y245872D02*
X309372Y257367D01*
X351028Y299023D02*
X351028Y320867D01*
X351028Y299023D02*
X309372Y257367D01*
X334772Y325628D02*
X317500Y342900D01*
X334772Y325628D02*
X346267Y325628D01*
D13*
X304800Y241300D03*
X304800Y127000D03*
D14*
X324453Y127000D01*
X447867Y106172D02*
X452628Y110933D01*
X452628Y211328D02*
X558800Y317500D01*
X452628Y211328D02*
X452628Y110933D01*
X345281Y106172D02*
X324453Y127000D01*
X345281Y106172D02*
X447867Y106172D01*
D13*
X304800Y266700D03*
D14*
X304800Y279400D01*
X342900Y317500D01*
D13*
X342900Y317500D03*
D14*
X393700Y406400D02*
X401499Y406400D01*
X413945Y393954D01*
X545084Y393954D02*
X558800Y407670D01*
X545084Y393954D02*
X413945Y393954D01*
D13*
X266700Y190500D03*
D14*
X342900Y114300D01*
X444500Y114300D01*
D13*
X444500Y114300D03*
X190500Y215900D03*
D14*
X330200Y215900D01*
X419100Y127000D01*
X419100Y126438D01*
D13*
X419100Y126438D03*
M02*
