G04 EAGLE Gerber RS-274X export*
G75*
%MOMM*%
%FSLAX34Y34*%
%LPD*%
%INSoldermask Top*%
%IPPOS*%
%AMOC8*
5,1,8,0,0,1.08239X$1,22.5*%
G01*
%ADD10C,2.082800*%
%ADD11C,4.521200*%
%ADD12R,1.473200X0.603200*%
%ADD13R,0.603200X1.473200*%

G36*
X316216Y401253D02*
X316216Y401253D01*
X316342Y401252D01*
X317353Y401391D01*
X317401Y401407D01*
X317491Y401426D01*
X318446Y401788D01*
X318489Y401814D01*
X318573Y401853D01*
X319423Y402417D01*
X319460Y402452D01*
X319532Y402509D01*
X320236Y403249D01*
X320264Y403291D01*
X320322Y403362D01*
X320843Y404240D01*
X320861Y404287D01*
X320902Y404369D01*
X321215Y405341D01*
X321222Y405391D01*
X321243Y405480D01*
X321332Y406498D01*
X321327Y406548D01*
X321328Y406639D01*
X321197Y407603D01*
X321181Y407651D01*
X321162Y407740D01*
X320820Y408651D01*
X320794Y408694D01*
X320755Y408778D01*
X320218Y409589D01*
X320183Y409625D01*
X320127Y409698D01*
X319423Y410370D01*
X319381Y410398D01*
X319310Y410456D01*
X318475Y410954D01*
X318427Y410972D01*
X318345Y411012D01*
X317420Y411312D01*
X317369Y411319D01*
X317280Y411341D01*
X316311Y411427D01*
X316264Y411423D01*
X316189Y411426D01*
X315213Y411324D01*
X315165Y411310D01*
X315075Y411294D01*
X314146Y410978D01*
X314102Y410954D01*
X314017Y410917D01*
X313182Y410403D01*
X313145Y410369D01*
X313070Y410315D01*
X312371Y409627D01*
X312341Y409586D01*
X312281Y409517D01*
X311752Y408690D01*
X311733Y408644D01*
X311689Y408563D01*
X311357Y407640D01*
X311349Y407590D01*
X311324Y407501D01*
X311206Y406527D01*
X311209Y406477D01*
X311205Y406391D01*
X311300Y405389D01*
X311314Y405340D01*
X311330Y405250D01*
X311646Y404294D01*
X311670Y404249D01*
X311706Y404165D01*
X312227Y403304D01*
X312260Y403266D01*
X312313Y403191D01*
X313013Y402467D01*
X313054Y402438D01*
X313123Y402377D01*
X313966Y401827D01*
X314012Y401807D01*
X314093Y401763D01*
X315037Y401415D01*
X315087Y401406D01*
X315175Y401381D01*
X316173Y401251D01*
X316216Y401253D01*
G37*
G36*
X344207Y401253D02*
X344207Y401253D01*
X344333Y401252D01*
X345344Y401391D01*
X345392Y401407D01*
X345482Y401426D01*
X346437Y401788D01*
X346480Y401814D01*
X346564Y401853D01*
X347414Y402417D01*
X347451Y402452D01*
X347523Y402509D01*
X348227Y403249D01*
X348255Y403291D01*
X348313Y403362D01*
X348834Y404240D01*
X348852Y404287D01*
X348893Y404369D01*
X349206Y405341D01*
X349213Y405391D01*
X349234Y405480D01*
X349323Y406498D01*
X349318Y406548D01*
X349319Y406639D01*
X349188Y407603D01*
X349172Y407651D01*
X349153Y407740D01*
X348811Y408651D01*
X348785Y408694D01*
X348746Y408778D01*
X348209Y409589D01*
X348174Y409625D01*
X348118Y409698D01*
X347414Y410370D01*
X347372Y410398D01*
X347301Y410456D01*
X346466Y410954D01*
X346418Y410972D01*
X346336Y411012D01*
X345411Y411312D01*
X345360Y411319D01*
X345271Y411341D01*
X344302Y411427D01*
X344255Y411423D01*
X344180Y411426D01*
X343204Y411324D01*
X343156Y411310D01*
X343066Y411294D01*
X342137Y410978D01*
X342093Y410954D01*
X342008Y410917D01*
X341173Y410403D01*
X341136Y410369D01*
X341061Y410315D01*
X340362Y409627D01*
X340332Y409586D01*
X340272Y409517D01*
X339743Y408690D01*
X339724Y408644D01*
X339680Y408563D01*
X339348Y407640D01*
X339340Y407590D01*
X339315Y407501D01*
X339197Y406527D01*
X339200Y406477D01*
X339196Y406391D01*
X339291Y405389D01*
X339305Y405340D01*
X339321Y405250D01*
X339637Y404294D01*
X339661Y404249D01*
X339697Y404165D01*
X340218Y403304D01*
X340251Y403266D01*
X340304Y403191D01*
X341004Y402467D01*
X341045Y402438D01*
X341114Y402377D01*
X341957Y401827D01*
X342003Y401807D01*
X342084Y401763D01*
X343028Y401415D01*
X343078Y401406D01*
X343166Y401381D01*
X344164Y401251D01*
X344207Y401253D01*
G37*
G36*
X559811Y402791D02*
X559811Y402791D01*
X559860Y402805D01*
X559950Y402821D01*
X560906Y403137D01*
X560951Y403161D01*
X561035Y403197D01*
X561896Y403718D01*
X561934Y403751D01*
X562009Y403804D01*
X562733Y404504D01*
X562762Y404545D01*
X562823Y404614D01*
X563373Y405457D01*
X563393Y405503D01*
X563437Y405584D01*
X563785Y406528D01*
X563794Y406578D01*
X563819Y406666D01*
X563949Y407664D01*
X563947Y407707D01*
X563948Y407833D01*
X563809Y408844D01*
X563793Y408892D01*
X563774Y408982D01*
X563412Y409937D01*
X563386Y409980D01*
X563348Y410064D01*
X562783Y410914D01*
X562748Y410951D01*
X562691Y411023D01*
X561952Y411727D01*
X561909Y411755D01*
X561838Y411813D01*
X560960Y412334D01*
X560913Y412352D01*
X560831Y412393D01*
X559859Y412706D01*
X559809Y412713D01*
X559720Y412734D01*
X558702Y412823D01*
X558652Y412818D01*
X558561Y412819D01*
X557597Y412688D01*
X557549Y412672D01*
X557460Y412653D01*
X556549Y412311D01*
X556506Y412285D01*
X556423Y412246D01*
X555611Y411709D01*
X555575Y411674D01*
X555502Y411618D01*
X554830Y410914D01*
X554803Y410872D01*
X554744Y410801D01*
X554246Y409966D01*
X554228Y409918D01*
X554188Y409836D01*
X553888Y408911D01*
X553881Y408860D01*
X553859Y408771D01*
X553773Y407802D01*
X553777Y407755D01*
X553774Y407680D01*
X553876Y406704D01*
X553890Y406656D01*
X553906Y406566D01*
X554222Y405637D01*
X554247Y405593D01*
X554283Y405508D01*
X554797Y404673D01*
X554831Y404636D01*
X554885Y404561D01*
X555573Y403862D01*
X555614Y403832D01*
X555683Y403772D01*
X556510Y403243D01*
X556556Y403224D01*
X556637Y403180D01*
X557560Y402848D01*
X557610Y402840D01*
X557699Y402815D01*
X558673Y402697D01*
X558723Y402700D01*
X558809Y402696D01*
X559811Y402791D01*
G37*
G36*
X559811Y374800D02*
X559811Y374800D01*
X559860Y374814D01*
X559950Y374830D01*
X560906Y375146D01*
X560951Y375170D01*
X561035Y375206D01*
X561896Y375727D01*
X561934Y375760D01*
X562009Y375813D01*
X562733Y376513D01*
X562762Y376554D01*
X562823Y376623D01*
X563373Y377466D01*
X563393Y377512D01*
X563437Y377593D01*
X563785Y378537D01*
X563794Y378587D01*
X563819Y378675D01*
X563949Y379673D01*
X563947Y379716D01*
X563948Y379842D01*
X563809Y380853D01*
X563793Y380901D01*
X563774Y380991D01*
X563412Y381946D01*
X563386Y381989D01*
X563348Y382073D01*
X562783Y382923D01*
X562748Y382960D01*
X562691Y383032D01*
X561952Y383736D01*
X561909Y383764D01*
X561838Y383822D01*
X560960Y384343D01*
X560913Y384361D01*
X560831Y384402D01*
X559859Y384715D01*
X559809Y384722D01*
X559720Y384743D01*
X558702Y384832D01*
X558652Y384827D01*
X558561Y384828D01*
X557597Y384697D01*
X557549Y384681D01*
X557460Y384662D01*
X556549Y384320D01*
X556506Y384294D01*
X556423Y384255D01*
X555611Y383718D01*
X555575Y383683D01*
X555502Y383627D01*
X554830Y382923D01*
X554803Y382881D01*
X554744Y382810D01*
X554246Y381975D01*
X554228Y381927D01*
X554188Y381845D01*
X553888Y380920D01*
X553881Y380869D01*
X553859Y380780D01*
X553773Y379811D01*
X553777Y379764D01*
X553774Y379689D01*
X553876Y378713D01*
X553890Y378665D01*
X553906Y378575D01*
X554222Y377646D01*
X554247Y377602D01*
X554283Y377517D01*
X554797Y376682D01*
X554831Y376645D01*
X554885Y376570D01*
X555573Y375871D01*
X555614Y375841D01*
X555683Y375781D01*
X556510Y375252D01*
X556556Y375233D01*
X556637Y375189D01*
X557560Y374857D01*
X557610Y374849D01*
X557699Y374824D01*
X558673Y374706D01*
X558723Y374709D01*
X558809Y374705D01*
X559811Y374800D01*
G37*
D10*
X292100Y330200D03*
X266700Y330200D03*
X292100Y254000D03*
X266700Y254000D03*
X266700Y292100D03*
X241300Y292100D03*
D11*
X584200Y264000D03*
X584200Y204000D03*
X631200Y234000D03*
D10*
X393700Y406400D03*
X419100Y406400D03*
X444500Y406400D03*
X469900Y406400D03*
X495300Y406400D03*
X520700Y406400D03*
X215900Y190500D03*
X215900Y165100D03*
X190500Y190500D03*
X190500Y165100D03*
X165100Y190500D03*
X165100Y165100D03*
X495300Y368300D03*
X469900Y368300D03*
X444500Y368300D03*
X419100Y368300D03*
X393700Y368300D03*
X368300Y368300D03*
X342900Y368300D03*
X317500Y368300D03*
X139700Y254000D03*
X215900Y254000D03*
X139700Y279400D03*
X215900Y279400D03*
X139700Y304800D03*
X215900Y304800D03*
X558800Y317500D03*
X635000Y317500D03*
D12*
X330400Y219900D03*
X330400Y211900D03*
X330400Y203900D03*
X330400Y227900D03*
X330400Y235900D03*
X330400Y195900D03*
X330400Y187900D03*
X330400Y243900D03*
X330400Y251900D03*
X330400Y179900D03*
X330400Y171900D03*
X330400Y259900D03*
X330400Y267900D03*
X330400Y163900D03*
X330400Y275900D03*
X330400Y155900D03*
D13*
X402400Y139900D03*
X410400Y139900D03*
X418400Y139900D03*
X394400Y139900D03*
X386400Y139900D03*
X426400Y139900D03*
X434400Y139900D03*
X378400Y139900D03*
X370400Y139900D03*
X442400Y139900D03*
X450400Y139900D03*
X362400Y139900D03*
X354400Y139900D03*
X458400Y139900D03*
X346400Y139900D03*
X466400Y139900D03*
D12*
X482400Y211900D03*
X482400Y219900D03*
X482400Y227900D03*
X482400Y203900D03*
X482400Y195900D03*
X482400Y235900D03*
X482400Y243900D03*
X482400Y187900D03*
X482400Y179900D03*
X482400Y251900D03*
X482400Y259900D03*
X482400Y171900D03*
X482400Y163900D03*
X482400Y267900D03*
X482400Y155900D03*
X482400Y275900D03*
D13*
X410400Y291900D03*
X402400Y291900D03*
X394400Y291900D03*
X418400Y291900D03*
X426400Y291900D03*
X386400Y291900D03*
X378400Y291900D03*
X434400Y291900D03*
X442400Y291900D03*
X370400Y291900D03*
X362400Y291900D03*
X450400Y291900D03*
X458400Y291900D03*
X354400Y291900D03*
X466400Y291900D03*
X346400Y291900D03*
M02*
