G04 EAGLE Gerber RS-274X export*
G75*
%MOMM*%
%FSLAX34Y34*%
%LPD*%
%INSolderpaste Top*%
%IPPOS*%
%AMOC8*
5,1,8,0,0,1.08239X$1,22.5*%
G01*
%ADD10R,1.270000X0.400000*%
%ADD11R,0.400000X1.270000*%


D10*
X330400Y219900D03*
X330400Y211900D03*
X330400Y203900D03*
X330400Y227900D03*
X330400Y235900D03*
X330400Y195900D03*
X330400Y187900D03*
X330400Y243900D03*
X330400Y251900D03*
X330400Y179900D03*
X330400Y171900D03*
X330400Y259900D03*
X330400Y267900D03*
X330400Y163900D03*
X330400Y275900D03*
X330400Y155900D03*
D11*
X402400Y139900D03*
X410400Y139900D03*
X418400Y139900D03*
X394400Y139900D03*
X386400Y139900D03*
X426400Y139900D03*
X434400Y139900D03*
X378400Y139900D03*
X370400Y139900D03*
X442400Y139900D03*
X450400Y139900D03*
X362400Y139900D03*
X354400Y139900D03*
X458400Y139900D03*
X346400Y139900D03*
X466400Y139900D03*
D10*
X482400Y211900D03*
X482400Y219900D03*
X482400Y227900D03*
X482400Y203900D03*
X482400Y195900D03*
X482400Y235900D03*
X482400Y243900D03*
X482400Y187900D03*
X482400Y179900D03*
X482400Y251900D03*
X482400Y259900D03*
X482400Y171900D03*
X482400Y163900D03*
X482400Y267900D03*
X482400Y155900D03*
X482400Y275900D03*
D11*
X410400Y291900D03*
X402400Y291900D03*
X394400Y291900D03*
X418400Y291900D03*
X426400Y291900D03*
X386400Y291900D03*
X378400Y291900D03*
X434400Y291900D03*
X442400Y291900D03*
X370400Y291900D03*
X362400Y291900D03*
X450400Y291900D03*
X458400Y291900D03*
X354400Y291900D03*
X466400Y291900D03*
X346400Y291900D03*
M02*
